<svg width="243" height="186" viewBox="0 0 243 186" fill="none" xmlns="http://www.w3.org/2000/svg">
<path d="M3.3925 165V137.08H9.4725V159.6H20.1125V165H3.3925ZM25.5234 165V160.16H29.1234V141.92H25.5234V137.08H38.8034V141.92H35.2034V160.16H38.8034V165H25.5234ZM45.8691 165V137.08H64.3891V142.48H51.9491V148.2H62.5491V153.56H51.9491V165H45.8691ZM71.2675 165V137.08H90.2675V142.48H77.3475V148.2H88.4275V153.56H77.3475V159.6H90.2675V165H71.2675ZM109.018 137.08H122.578C124.898 137.08 126.698 137.733 127.977 139.04C129.284 140.347 129.938 142.08 129.938 144.24C129.938 145.307 129.791 146.213 129.498 146.96C129.231 147.707 128.858 148.32 128.378 148.8C127.924 149.28 127.378 149.64 126.738 149.88C126.124 150.093 125.458 150.213 124.738 150.24V150.48C125.404 150.48 126.098 150.6 126.818 150.84C127.564 151.08 128.244 151.467 128.858 152C129.471 152.507 129.978 153.173 130.378 154C130.804 154.827 131.018 155.84 131.018 157.04C131.018 158.133 130.831 159.173 130.458 160.16C130.111 161.12 129.618 161.96 128.978 162.68C128.338 163.4 127.578 163.973 126.698 164.4C125.818 164.8 124.858 165 123.818 165H109.018V137.08ZM115.098 159.88H122.098C122.898 159.88 123.524 159.667 123.978 159.24C124.458 158.787 124.698 158.16 124.698 157.36V156C124.698 155.2 124.458 154.587 123.978 154.16C123.524 153.707 122.898 153.48 122.098 153.48H115.098V159.88ZM115.098 148.52H121.138C121.938 148.52 122.564 148.293 123.018 147.84C123.471 147.387 123.698 146.76 123.698 145.96V144.76C123.698 143.96 123.471 143.333 123.018 142.88C122.564 142.427 121.938 142.2 121.138 142.2H115.098V148.52ZM137.697 165V137.08H143.777V159.6H154.417V165H137.697ZM170.507 165.48C168.667 165.48 166.987 165.173 165.467 164.56C163.947 163.947 162.653 163.04 161.587 161.84C160.52 160.613 159.693 159.107 159.107 157.32C158.52 155.507 158.227 153.413 158.227 151.04C158.227 148.667 158.52 146.587 159.107 144.8C159.693 142.987 160.52 141.48 161.587 140.28C162.653 139.053 163.947 138.133 165.467 137.52C166.987 136.907 168.667 136.6 170.507 136.6C172.347 136.6 174.027 136.907 175.547 137.52C177.067 138.133 178.36 139.053 179.427 140.28C180.493 141.48 181.32 142.987 181.907 144.8C182.493 146.587 182.787 148.667 182.787 151.04C182.787 153.413 182.493 155.507 181.907 157.32C181.32 159.107 180.493 160.613 179.427 161.84C178.36 163.04 177.067 163.947 175.547 164.56C174.027 165.173 172.347 165.48 170.507 165.48ZM170.507 160.08C172.347 160.08 173.773 159.48 174.787 158.28C175.827 157.08 176.347 155.36 176.347 153.12V148.96C176.347 146.72 175.827 145 174.787 143.8C173.773 142.6 172.347 142 170.507 142C168.667 142 167.227 142.6 166.187 143.8C165.173 145 164.667 146.72 164.667 148.96V153.12C164.667 155.36 165.173 157.08 166.187 158.28C167.227 159.48 168.667 160.08 170.507 160.08ZM201.141 165.48C199.248 165.48 197.541 165.187 196.021 164.6C194.501 163.987 193.208 163.093 192.141 161.92C191.075 160.72 190.248 159.24 189.661 157.48C189.075 155.693 188.781 153.613 188.781 151.24C188.781 148.893 189.075 146.813 189.661 145C190.248 143.16 191.075 141.627 192.141 140.4C193.208 139.147 194.501 138.2 196.021 137.56C197.541 136.92 199.248 136.6 201.141 136.6C203.728 136.6 205.861 137.133 207.541 138.2C209.221 139.24 210.568 140.893 211.581 143.16L206.341 145.88C205.968 144.707 205.381 143.773 204.581 143.08C203.808 142.36 202.661 142 201.141 142C199.355 142 197.915 142.587 196.821 143.76C195.755 144.907 195.221 146.587 195.221 148.8V153.28C195.221 155.493 195.755 157.187 196.821 158.36C197.915 159.507 199.355 160.08 201.141 160.08C202.635 160.08 203.821 159.68 204.701 158.88C205.608 158.053 206.275 157.067 206.701 155.92L211.661 158.8C210.621 160.933 209.248 162.587 207.541 163.76C205.861 164.907 203.728 165.48 201.141 165.48ZM227.636 152.84L223.996 157.24V165H217.916V137.08H223.996V150.36H224.236L228.196 144.96L234.476 137.08H241.356L231.956 148.56L242.196 165H235.036L227.636 152.84Z" fill="white"/>
<path fill-rule="evenodd" clip-rule="evenodd" d="M122.376 12.4833L130.079 34.0506C130.648 33.6641 131.318 33.4147 132.041 33.3501L124.338 11.7827C123.769 12.1692 123.099 12.4186 122.376 12.4833ZM124.537 11.6391L147.001 20.9442C147 20.9074 147 20.8704 147 20.8333C147 20.1307 147.174 19.4686 147.481 18.8879L125.85 9.92825C125.569 10.608 125.112 11.1969 124.537 11.6391ZM153.112 24.5189C152.531 24.8261 151.869 25 151.167 25C151.13 25 151.093 24.9995 151.056 24.9985L160.361 47.4633C160.803 46.888 161.392 46.4313 162.072 46.1495L153.112 24.5189ZM162.072 53.8505C160.892 53.3614 159.986 52.3462 159.646 51.0977L142.337 60.9884L134.809 40.9121C134.245 41.3079 133.579 41.5677 132.858 41.6436L140.261 61.3842L124.079 60.6137C124.044 61.3684 123.808 62.0706 123.423 62.6681L139.887 63.4521L122.832 88.5859L121.163 64.3936C120.77 64.5169 120.351 64.5833 119.917 64.5833C119.631 64.5833 119.352 64.5546 119.082 64.4998L120.765 88.9001L95.8043 78.5611L117.873 64.0487C117.244 63.6937 116.716 63.1797 116.344 62.5612L94.7965 76.7304L107.516 46.0235L116.341 58.2763C116.708 57.665 117.227 57.1556 117.845 56.8004L109.008 44.5304L128.763 39.5044C128.436 38.9097 128.25 38.2266 128.25 37.5C128.25 37.4951 128.25 37.4901 128.25 37.4852L109.027 42.3759L121.418 12.4597C120.702 12.3597 120.045 12.0778 119.494 11.6622L107.076 41.6403L95.8002 23.7588C95.3113 24.2546 94.699 24.6285 94.0131 24.8306L105.602 43.2076L84.0387 48.0925C84.3335 48.664 84.5 49.3126 84.5 50C84.5 50.0417 84.4993 50.0832 84.4981 50.1245L105.536 45.3586L93.1009 75.3798L83.639 52.5367C83.1969 53.112 82.6079 53.5686 81.9282 53.8505L91.9734 78.1018L92.1313 78.483L92.5372 79.4628L93.4996 79.8614L93.7004 79.9446L120.925 91.2214L122 91.6667L123.015 91.2462L123.751 90.9414L147.481 81.1121C147.174 80.5313 147 79.8693 147 79.1667C147 79.1296 147 79.0926 147.001 79.0557L125.879 87.8048L141.715 64.4684L148.346 76.0996C148.857 75.6294 149.486 75.2852 150.184 75.1166L143.212 62.8881L160.061 53.2599L151.056 75.0014C151.093 75.0005 151.13 75 151.167 75C151.869 75 152.531 75.1739 153.112 75.4811L162.072 53.8505ZM81.9282 46.1495C82.6079 46.4313 83.1969 46.888 83.639 47.4633L92.9442 24.9985C92.9074 24.9995 92.8704 25 92.8333 25C92.1306 25 91.4686 24.8261 90.8879 24.5189L81.9282 46.1495ZM96.5189 18.8879C96.826 19.4686 97 20.1307 97 20.8333C97 20.8704 96.9995 20.9074 96.9985 20.9442L119.463 11.6391C118.888 11.1969 118.431 10.608 118.149 9.92825L96.5189 18.8879ZM135.776 39.9656L159.534 49.4687C159.625 48.7509 159.899 48.0901 160.307 47.5344L136.55 38.0313C136.458 38.7491 136.184 39.4099 135.776 39.9656ZM136.123 35.5941L148.826 24.2807C148.245 23.8855 147.769 23.3474 147.449 22.717L134.737 34.0386C135.32 34.4304 135.799 34.9658 136.123 35.5941Z" fill="#989898"/>
<mask id="path-3-inside-1_125_4336" fill="white">
<path fill-rule="evenodd" clip-rule="evenodd" d="M122 12.5C124.301 12.5 126.167 10.6345 126.167 8.33332C126.167 6.03214 124.301 4.16666 122 4.16666C119.699 4.16666 117.833 6.03214 117.833 8.33332C117.833 10.6345 119.699 12.5 122 12.5ZM122 10.4167C123.151 10.4167 124.083 9.48393 124.083 8.33333C124.083 7.18274 123.151 6.25 122 6.25C120.849 6.25 119.917 7.18274 119.917 8.33333C119.917 9.48393 120.849 10.4167 122 10.4167Z"/>
</mask>
<path fill-rule="evenodd" clip-rule="evenodd" d="M122 12.5C124.301 12.5 126.167 10.6345 126.167 8.33332C126.167 6.03214 124.301 4.16666 122 4.16666C119.699 4.16666 117.833 6.03214 117.833 8.33332C117.833 10.6345 119.699 12.5 122 12.5ZM122 10.4167C123.151 10.4167 124.083 9.48393 124.083 8.33333C124.083 7.18274 123.151 6.25 122 6.25C120.849 6.25 119.917 7.18274 119.917 8.33333C119.917 9.48393 120.849 10.4167 122 10.4167Z" fill="#989898"/>
<path d="M124.083 8.33332C124.083 9.48392 123.151 10.4167 122 10.4167V14.5833C125.452 14.5833 128.25 11.7851 128.25 8.33332H124.083ZM122 6.24999C123.151 6.24999 124.083 7.18273 124.083 8.33332H128.25C128.25 4.88154 125.452 2.08332 122 2.08332V6.24999ZM119.917 8.33332C119.917 7.18273 120.85 6.24999 122 6.24999V2.08332C118.548 2.08332 115.75 4.88154 115.75 8.33332H119.917ZM122 10.4167C120.85 10.4167 119.917 9.48392 119.917 8.33332H115.75C115.75 11.7851 118.548 14.5833 122 14.5833V10.4167ZM122 8.33333V12.5C124.301 12.5 126.167 10.6345 126.167 8.33333H122ZM122 8.33333H126.167C126.167 6.03215 124.301 4.16667 122 4.16667V8.33333ZM122 8.33333V4.16667C119.699 4.16667 117.833 6.03215 117.833 8.33333H122ZM122 8.33333H117.833C117.833 10.6345 119.699 12.5 122 12.5V8.33333Z" fill="#D9D9D9" mask="url(#path-3-inside-1_125_4336)"/>
<mask id="path-5-inside-2_125_4336" fill="white">
<path fill-rule="evenodd" clip-rule="evenodd" d="M132.417 41.6667C134.718 41.6667 136.583 39.8012 136.583 37.5C136.583 35.1988 134.718 33.3333 132.417 33.3333C130.115 33.3333 128.25 35.1988 128.25 37.5C128.25 39.8012 130.115 41.6667 132.417 41.6667ZM132.417 39.5833C133.567 39.5833 134.5 38.6506 134.5 37.5C134.5 36.3494 133.567 35.4167 132.417 35.4167C131.266 35.4167 130.333 36.3494 130.333 37.5C130.333 38.6506 131.266 39.5833 132.417 39.5833Z"/>
</mask>
<path fill-rule="evenodd" clip-rule="evenodd" d="M132.417 41.6667C134.718 41.6667 136.583 39.8012 136.583 37.5C136.583 35.1988 134.718 33.3333 132.417 33.3333C130.115 33.3333 128.25 35.1988 128.25 37.5C128.25 39.8012 130.115 41.6667 132.417 41.6667ZM132.417 39.5833C133.567 39.5833 134.5 38.6506 134.5 37.5C134.5 36.3494 133.567 35.4167 132.417 35.4167C131.266 35.4167 130.333 36.3494 130.333 37.5C130.333 38.6506 131.266 39.5833 132.417 39.5833Z" fill="#989898"/>
<path d="M134.5 37.5C134.5 38.6506 133.567 39.5833 132.417 39.5833V43.75C135.868 43.75 138.667 40.9518 138.667 37.5H134.5ZM132.417 35.4167C133.567 35.4167 134.5 36.3494 134.5 37.5H138.667C138.667 34.0482 135.868 31.25 132.417 31.25V35.4167ZM130.333 37.5C130.333 36.3494 131.266 35.4167 132.417 35.4167V31.25C128.965 31.25 126.167 34.0482 126.167 37.5H130.333ZM132.417 39.5833C131.266 39.5833 130.333 38.6506 130.333 37.5H126.167C126.167 40.9518 128.965 43.75 132.417 43.75V39.5833ZM132.417 37.5V37.5V41.6667C134.718 41.6667 136.583 39.8012 136.583 37.5H132.417ZM132.417 37.5H136.583C136.583 35.1988 134.718 33.3333 132.417 33.3333V37.5ZM132.417 37.5V33.3333C130.115 33.3333 128.25 35.1988 128.25 37.5H132.417ZM132.417 37.5V37.5H128.25C128.25 39.8012 130.115 41.6667 132.417 41.6667V37.5Z" fill="#D9D9D9" mask="url(#path-5-inside-2_125_4336)"/>
<mask id="path-7-inside-3_125_4336" fill="white">
<path fill-rule="evenodd" clip-rule="evenodd" d="M151.167 83.3333C153.468 83.3333 155.333 81.4679 155.333 79.1667C155.333 76.8655 153.468 75 151.167 75C148.865 75 147 76.8655 147 79.1667C147 81.4679 148.865 83.3333 151.167 83.3333ZM151.167 81.25C152.317 81.25 153.25 80.3173 153.25 79.1667C153.25 78.0161 152.317 77.0833 151.167 77.0833C150.016 77.0833 149.083 78.0161 149.083 79.1667C149.083 80.3173 150.016 81.25 151.167 81.25Z"/>
</mask>
<path fill-rule="evenodd" clip-rule="evenodd" d="M151.167 83.3333C153.468 83.3333 155.333 81.4679 155.333 79.1667C155.333 76.8655 153.468 75 151.167 75C148.865 75 147 76.8655 147 79.1667C147 81.4679 148.865 83.3333 151.167 83.3333ZM151.167 81.25C152.317 81.25 153.25 80.3173 153.25 79.1667C153.25 78.0161 152.317 77.0833 151.167 77.0833C150.016 77.0833 149.083 78.0161 149.083 79.1667C149.083 80.3173 150.016 81.25 151.167 81.25Z" fill="#989898"/>
<path d="M153.25 79.1667C153.25 80.3173 152.317 81.25 151.167 81.25V85.4167C154.618 85.4167 157.417 82.6184 157.417 79.1667H153.25ZM151.167 77.0833C152.317 77.0833 153.25 78.0161 153.25 79.1667H157.417C157.417 75.7149 154.618 72.9167 151.167 72.9167V77.0833ZM149.083 79.1667C149.083 78.0161 150.016 77.0833 151.167 77.0833V72.9167C147.715 72.9167 144.917 75.7149 144.917 79.1667H149.083ZM151.167 81.25C150.016 81.25 149.083 80.3173 149.083 79.1667H144.917C144.917 82.6184 147.715 85.4167 151.167 85.4167V81.25ZM151.167 79.1667L151.167 79.1667V83.3333C153.468 83.3333 155.333 81.4679 155.333 79.1667H151.167ZM151.167 79.1667H151.167H155.333C155.333 76.8655 153.468 75 151.167 75V79.1667ZM151.167 79.1667V75C148.865 75 147 76.8655 147 79.1667H151.167ZM151.167 79.1667V79.1667H147C147 81.4678 148.865 83.3333 151.167 83.3333V79.1667Z" fill="#D9D9D9" mask="url(#path-7-inside-3_125_4336)"/>
<mask id="path-9-inside-4_125_4336" fill="white">
<path fill-rule="evenodd" clip-rule="evenodd" d="M163.667 54.1667C165.968 54.1667 167.833 52.3012 167.833 50C167.833 47.6988 165.968 45.8333 163.667 45.8333C161.365 45.8333 159.5 47.6988 159.5 50C159.5 52.3012 161.365 54.1667 163.667 54.1667ZM163.667 52.0833C164.817 52.0833 165.75 51.1506 165.75 50C165.75 48.8494 164.817 47.9167 163.667 47.9167C162.516 47.9167 161.583 48.8494 161.583 50C161.583 51.1506 162.516 52.0833 163.667 52.0833Z"/>
</mask>
<path fill-rule="evenodd" clip-rule="evenodd" d="M163.667 54.1667C165.968 54.1667 167.833 52.3012 167.833 50C167.833 47.6988 165.968 45.8333 163.667 45.8333C161.365 45.8333 159.5 47.6988 159.5 50C159.5 52.3012 161.365 54.1667 163.667 54.1667ZM163.667 52.0833C164.817 52.0833 165.75 51.1506 165.75 50C165.75 48.8494 164.817 47.9167 163.667 47.9167C162.516 47.9167 161.583 48.8494 161.583 50C161.583 51.1506 162.516 52.0833 163.667 52.0833Z" fill="#989898"/>
<path d="M165.75 50C165.75 51.1506 164.817 52.0833 163.667 52.0833V56.25C167.118 56.25 169.917 53.4518 169.917 50H165.75ZM163.667 47.9167C164.817 47.9167 165.75 48.8494 165.75 50H169.917C169.917 46.5482 167.118 43.75 163.667 43.75V47.9167ZM161.583 50C161.583 48.8494 162.516 47.9167 163.667 47.9167V43.75C160.215 43.75 157.417 46.5482 157.417 50H161.583ZM163.667 52.0833C162.516 52.0833 161.583 51.1506 161.583 50H157.417C157.417 53.4518 160.215 56.25 163.667 56.25V52.0833ZM163.667 50V54.1667C165.968 54.1667 167.833 52.3012 167.833 50H163.667ZM163.667 50H167.833C167.833 47.6988 165.968 45.8333 163.667 45.8333V50ZM163.667 50V45.8333C161.365 45.8333 159.5 47.6988 159.5 50H163.667ZM163.667 50H159.5C159.5 52.3012 161.365 54.1667 163.667 54.1667V50Z" fill="#D9D9D9" mask="url(#path-9-inside-4_125_4336)"/>
<mask id="path-11-inside-5_125_4336" fill="white">
<path fill-rule="evenodd" clip-rule="evenodd" d="M80.3332 54.1667C82.6344 54.1667 84.4998 52.3012 84.4998 50C84.4998 47.6988 82.6344 45.8333 80.3332 45.8333C78.032 45.8333 76.1665 47.6988 76.1665 50C76.1665 52.3012 78.032 54.1667 80.3332 54.1667ZM80.3333 52.0833C81.4839 52.0833 82.4167 51.1506 82.4167 50C82.4167 48.8494 81.4839 47.9167 80.3333 47.9167C79.1827 47.9167 78.25 48.8494 78.25 50C78.25 51.1506 79.1827 52.0833 80.3333 52.0833Z"/>
</mask>
<path fill-rule="evenodd" clip-rule="evenodd" d="M80.3332 54.1667C82.6344 54.1667 84.4998 52.3012 84.4998 50C84.4998 47.6988 82.6344 45.8333 80.3332 45.8333C78.032 45.8333 76.1665 47.6988 76.1665 50C76.1665 52.3012 78.032 54.1667 80.3332 54.1667ZM80.3333 52.0833C81.4839 52.0833 82.4167 51.1506 82.4167 50C82.4167 48.8494 81.4839 47.9167 80.3333 47.9167C79.1827 47.9167 78.25 48.8494 78.25 50C78.25 51.1506 79.1827 52.0833 80.3333 52.0833Z" fill="#989898"/>
<path d="M82.4165 50C82.4165 51.1506 81.4838 52.0833 80.3332 52.0833V56.25C83.785 56.25 86.5832 53.4518 86.5832 50H82.4165ZM80.3332 47.9167C81.4838 47.9167 82.4165 48.8494 82.4165 50H86.5832C86.5832 46.5482 83.785 43.75 80.3332 43.75V47.9167ZM78.2498 50C78.2498 48.8494 79.1826 47.9167 80.3332 47.9167V43.75C76.8814 43.75 74.0832 46.5482 74.0832 50H78.2498ZM80.3332 52.0833C79.1826 52.0833 78.2498 51.1506 78.2498 50H74.0832C74.0832 53.4518 76.8814 56.25 80.3332 56.25V52.0833ZM80.3333 50V54.1667C82.6345 54.1667 84.5 52.3012 84.5 50H80.3333ZM80.3333 50H84.5C84.5 47.6988 82.6345 45.8333 80.3333 45.8333V50ZM80.3333 50V45.8333C78.0321 45.8333 76.1667 47.6988 76.1667 50H80.3333ZM80.3333 50H76.1667C76.1667 52.3012 78.0321 54.1667 80.3333 54.1667V50Z" fill="#D9D9D9" mask="url(#path-11-inside-5_125_4336)"/>
<mask id="path-13-inside-6_125_4336" fill="white">
<path fill-rule="evenodd" clip-rule="evenodd" d="M119.917 64.5833C122.218 64.5833 124.083 62.7179 124.083 60.4167C124.083 58.1155 122.218 56.25 119.917 56.25C117.615 56.25 115.75 58.1155 115.75 60.4167C115.75 62.7179 117.615 64.5833 119.917 64.5833ZM119.917 62.5C121.067 62.5 122 61.5673 122 60.4167C122 59.2661 121.067 58.3333 119.917 58.3333C118.766 58.3333 117.833 59.2661 117.833 60.4167C117.833 61.5673 118.766 62.5 119.917 62.5Z"/>
</mask>
<path fill-rule="evenodd" clip-rule="evenodd" d="M119.917 64.5833C122.218 64.5833 124.083 62.7179 124.083 60.4167C124.083 58.1155 122.218 56.25 119.917 56.25C117.615 56.25 115.75 58.1155 115.75 60.4167C115.75 62.7179 117.615 64.5833 119.917 64.5833ZM119.917 62.5C121.067 62.5 122 61.5673 122 60.4167C122 59.2661 121.067 58.3333 119.917 58.3333C118.766 58.3333 117.833 59.2661 117.833 60.4167C117.833 61.5673 118.766 62.5 119.917 62.5Z" fill="#989898"/>
<path d="M122 60.4167C122 61.5673 121.067 62.5 119.917 62.5V66.6667C123.368 66.6667 126.167 63.8684 126.167 60.4167H122ZM119.917 58.3333C121.067 58.3333 122 59.2661 122 60.4167H126.167C126.167 56.9649 123.368 54.1667 119.917 54.1667V58.3333ZM117.833 60.4167C117.833 59.2661 118.766 58.3333 119.917 58.3333V54.1667C116.465 54.1667 113.667 56.9649 113.667 60.4167H117.833ZM119.917 62.5C118.766 62.5 117.833 61.5673 117.833 60.4167H113.667C113.667 63.8684 116.465 66.6667 119.917 66.6667V62.5ZM119.917 60.4167V64.5833C122.218 64.5833 124.083 62.7179 124.083 60.4167H119.917ZM119.917 60.4167H124.083C124.083 58.1155 122.218 56.25 119.917 56.25V60.4167ZM119.917 60.4167V56.25C117.615 56.25 115.75 58.1155 115.75 60.4167H119.917ZM119.917 60.4167H115.75C115.75 62.7179 117.615 64.5833 119.917 64.5833V60.4167Z" fill="#D9D9D9" mask="url(#path-13-inside-6_125_4336)"/>
<mask id="path-15-inside-7_125_4336" fill="white">
<path fill-rule="evenodd" clip-rule="evenodd" d="M92.8332 25C95.1344 25 96.9998 23.1345 96.9998 20.8333C96.9998 18.5321 95.1344 16.6667 92.8332 16.6667C90.532 16.6667 88.6665 18.5321 88.6665 20.8333C88.6665 23.1345 90.532 25 92.8332 25ZM92.8333 22.9167C93.9839 22.9167 94.9167 21.9839 94.9167 20.8333C94.9167 19.6827 93.9839 18.75 92.8333 18.75C91.6827 18.75 90.75 19.6827 90.75 20.8333C90.75 21.9839 91.6827 22.9167 92.8333 22.9167Z"/>
</mask>
<path fill-rule="evenodd" clip-rule="evenodd" d="M92.8332 25C95.1344 25 96.9998 23.1345 96.9998 20.8333C96.9998 18.5321 95.1344 16.6667 92.8332 16.6667C90.532 16.6667 88.6665 18.5321 88.6665 20.8333C88.6665 23.1345 90.532 25 92.8332 25ZM92.8333 22.9167C93.9839 22.9167 94.9167 21.9839 94.9167 20.8333C94.9167 19.6827 93.9839 18.75 92.8333 18.75C91.6827 18.75 90.75 19.6827 90.75 20.8333C90.75 21.9839 91.6827 22.9167 92.8333 22.9167Z" fill="#989898"/>
<path d="M94.9165 20.8333C94.9165 21.9839 93.9838 22.9167 92.8332 22.9167V27.0833C96.285 27.0833 99.0832 24.2851 99.0832 20.8333H94.9165ZM92.8332 18.75C93.9838 18.75 94.9165 19.6827 94.9165 20.8333H99.0832C99.0832 17.3815 96.285 14.5833 92.8332 14.5833V18.75ZM90.7498 20.8333C90.7498 19.6827 91.6826 18.75 92.8332 18.75V14.5833C89.3814 14.5833 86.5832 17.3815 86.5832 20.8333H90.7498ZM92.8332 22.9167C91.6826 22.9167 90.7498 21.9839 90.7498 20.8333H86.5832C86.5832 24.2851 89.3814 27.0833 92.8332 27.0833V22.9167ZM92.8333 20.8333L92.8333 20.8333V25C95.1345 25 97 23.1345 97 20.8333H92.8333ZM92.8333 20.8333H92.8333H97C97 18.5321 95.1345 16.6667 92.8333 16.6667V20.8333ZM92.8333 20.8333V16.6667C90.5321 16.6667 88.6667 18.5321 88.6667 20.8333H92.8333ZM92.8333 20.8333V20.8333H88.6667C88.6667 23.1345 90.5321 25 92.8333 25V20.8333Z" fill="#D9D9D9" mask="url(#path-15-inside-7_125_4336)"/>
<mask id="path-17-inside-8_125_4336" fill="white">
<path fill-rule="evenodd" clip-rule="evenodd" d="M151.167 25C153.468 25 155.333 23.1345 155.333 20.8333C155.333 18.5321 153.468 16.6667 151.167 16.6667C148.865 16.6667 147 18.5321 147 20.8333C147 23.1345 148.865 25 151.167 25ZM151.167 22.9167C152.317 22.9167 153.25 21.9839 153.25 20.8333C153.25 19.6827 152.317 18.75 151.167 18.75C150.016 18.75 149.083 19.6827 149.083 20.8333C149.083 21.9839 150.016 22.9167 151.167 22.9167Z"/>
</mask>
<path fill-rule="evenodd" clip-rule="evenodd" d="M151.167 25C153.468 25 155.333 23.1345 155.333 20.8333C155.333 18.5321 153.468 16.6667 151.167 16.6667C148.865 16.6667 147 18.5321 147 20.8333C147 23.1345 148.865 25 151.167 25ZM151.167 22.9167C152.317 22.9167 153.25 21.9839 153.25 20.8333C153.25 19.6827 152.317 18.75 151.167 18.75C150.016 18.75 149.083 19.6827 149.083 20.8333C149.083 21.9839 150.016 22.9167 151.167 22.9167Z" fill="#989898"/>
<path d="M153.25 20.8333C153.25 21.9839 152.317 22.9167 151.167 22.9167V27.0833C154.618 27.0833 157.417 24.2851 157.417 20.8333H153.25ZM151.167 18.75C152.317 18.75 153.25 19.6827 153.25 20.8333H157.417C157.417 17.3815 154.618 14.5833 151.167 14.5833V18.75ZM149.083 20.8333C149.083 19.6827 150.016 18.75 151.167 18.75V14.5833C147.715 14.5833 144.917 17.3815 144.917 20.8333H149.083ZM151.167 22.9167C150.016 22.9167 149.083 21.9839 149.083 20.8333H144.917C144.917 24.2851 147.715 27.0833 151.167 27.0833V22.9167ZM151.167 20.8333L151.167 20.8333V25C153.468 25 155.333 23.1345 155.333 20.8333H151.167ZM151.167 20.8333H151.167H155.333C155.333 18.5321 153.468 16.6667 151.167 16.6667V20.8333ZM151.167 20.8333V16.6667C148.865 16.6667 147 18.5321 147 20.8333H151.167ZM151.167 20.8333V20.8333H147C147 23.1345 148.865 25 151.167 25V20.8333Z" fill="#D9D9D9" mask="url(#path-17-inside-8_125_4336)"/>
<path d="M90.75 91.6667V12.5H109.5V75H147V91.6667H90.75Z" fill="white"/>
<path d="M97 8.33334L90.75 12.5H109.5L115.75 8.33334H97Z" fill="#D9D9D9"/>
<path d="M115.75 8.33334L109.5 12.5V75L115.75 70.8333V8.33334Z" fill="#989898"/>
<path d="M115.75 70.8333L109.5 75H147L153.25 70.8333H115.75Z" fill="#D9D9D9"/>
<path d="M153.25 70.8333L147 75V91.6667L153.25 87.5V70.8333Z" fill="#989898"/>
</svg>
