<svg width="100" height="100" viewBox="0 0 100 100" fill="none" xmlns="http://www.w3.org/2000/svg">
<path fill-rule="evenodd" clip-rule="evenodd" d="M50.376 12.4833L58.0786 34.0506C58.6477 33.6641 59.3176 33.4147 60.0406 33.3501L52.338 11.7827C51.7688 12.1692 51.099 12.4186 50.376 12.4833ZM52.5367 11.6391L75.0014 20.9442C75.0005 20.9074 75 20.8704 75 20.8333C75 20.1307 75.1739 19.4686 75.481 18.8879L53.8505 9.92825C53.5686 10.608 53.112 11.1969 52.5367 11.6391ZM81.112 24.5189C80.5313 24.8261 79.8693 25 79.1666 25C79.1295 25 79.0926 24.9995 79.0557 24.9985L88.3609 47.4633C88.803 46.888 89.392 46.4313 90.0717 46.1495L81.112 24.5189ZM90.0717 53.8505C88.8923 53.3614 87.9862 52.3462 87.6461 51.0977L70.3373 60.9884L62.8087 40.9121C62.245 41.3079 61.5789 41.5677 60.858 41.6436L68.2607 61.3842L52.0787 60.6137C52.0436 61.3684 51.8077 62.0706 51.4232 62.6681L67.8867 63.4521L50.8316 88.5859L49.1632 64.3936C48.7696 64.5169 48.3509 64.5833 47.9166 64.5833C47.6309 64.5833 47.3518 64.5546 47.0822 64.4998L48.765 88.9001L23.8043 78.5611L45.8733 64.0487C45.2436 63.6937 44.7155 63.1797 44.3435 62.5612L22.7965 76.7304L35.5157 46.0235L44.341 58.2763C44.7077 57.665 45.2266 57.1556 45.8454 56.8004L37.0078 44.5304L56.7629 39.5044C56.4359 38.9097 56.25 38.2266 56.25 37.5C56.25 37.4951 56.25 37.4901 56.25 37.4852L37.0265 42.3759L49.4182 12.4597C48.7023 12.3597 48.0447 12.0778 47.4936 11.6622L35.0763 41.6403L23.8002 23.7588C23.3113 24.2546 22.699 24.6285 22.0131 24.8306L33.6017 43.2076L12.0387 48.0925C12.3335 48.664 12.5 49.3126 12.5 50C12.5 50.0417 12.4993 50.0832 12.4981 50.1245L33.5361 45.3586L21.1009 75.3798L11.639 52.5367C11.1969 53.112 10.6079 53.5686 9.92822 53.8505L19.9734 78.1018L20.1313 78.483L20.5372 79.4628L21.4996 79.8614L21.7004 79.9446L48.9251 91.2214L50 91.6667L51.0151 91.2462L51.751 90.9414L75.481 81.1121C75.1739 80.5313 75 79.8693 75 79.1667C75 79.1296 75.0005 79.0926 75.0014 79.0557L53.8794 87.8048L69.7148 64.4684L76.3462 76.0996C76.8574 75.6294 77.4864 75.2852 78.1839 75.1166L71.212 62.8881L88.0613 53.2599L79.0557 75.0014C79.0926 75.0005 79.1295 75 79.1666 75C79.8693 75 80.5313 75.1739 81.112 75.4811L90.0717 53.8505ZM9.92822 46.1495C10.6079 46.4313 11.1969 46.888 11.639 47.4633L20.9442 24.9985C20.9074 24.9995 20.8704 25 20.8333 25C20.1306 25 19.4686 24.8261 18.8879 24.5189L9.92822 46.1495ZM24.5189 18.8879C24.826 19.4686 25 20.1307 25 20.8333C25 20.8704 24.9995 20.9074 24.9985 20.9442L47.4632 11.6391C46.8879 11.1969 46.4313 10.608 46.1495 9.92825L24.5189 18.8879ZM63.7758 39.9656L87.5335 49.4687C87.6249 48.7509 87.8989 48.0901 88.3074 47.5344L64.5497 38.0313C64.4584 38.7491 64.1844 39.4099 63.7758 39.9656ZM64.1228 35.5941L76.8257 24.2807C76.2449 23.8855 75.7691 23.3474 75.449 22.717L62.7369 34.0386C63.3202 34.4304 63.7991 34.9658 64.1228 35.5941Z" fill="#989898"/>
<mask id="path-2-inside-1_125_4338" fill="white">
<path fill-rule="evenodd" clip-rule="evenodd" d="M50.0002 12.5C52.3013 12.5 54.1668 10.6345 54.1668 8.33332C54.1668 6.03214 52.3013 4.16666 50.0002 4.16666C47.699 4.16666 45.8335 6.03214 45.8335 8.33332C45.8335 10.6345 47.699 12.5 50.0002 12.5ZM50 10.4167C51.1506 10.4167 52.0833 9.48393 52.0833 8.33333C52.0833 7.18274 51.1506 6.25 50 6.25C48.8494 6.25 47.9167 7.18274 47.9167 8.33333C47.9167 9.48393 48.8494 10.4167 50 10.4167Z"/>
</mask>
<path fill-rule="evenodd" clip-rule="evenodd" d="M50.0002 12.5C52.3013 12.5 54.1668 10.6345 54.1668 8.33332C54.1668 6.03214 52.3013 4.16666 50.0002 4.16666C47.699 4.16666 45.8335 6.03214 45.8335 8.33332C45.8335 10.6345 47.699 12.5 50.0002 12.5ZM50 10.4167C51.1506 10.4167 52.0833 9.48393 52.0833 8.33333C52.0833 7.18274 51.1506 6.25 50 6.25C48.8494 6.25 47.9167 7.18274 47.9167 8.33333C47.9167 9.48393 48.8494 10.4167 50 10.4167Z" fill="#989898"/>
<path d="M52.0835 8.33332C52.0835 9.48392 51.1508 10.4167 50.0002 10.4167V14.5833C53.4519 14.5833 56.2502 11.7851 56.2502 8.33332H52.0835ZM50.0002 6.24999C51.1508 6.24999 52.0835 7.18273 52.0835 8.33332H56.2502C56.2502 4.88154 53.4519 2.08332 50.0002 2.08332V6.24999ZM47.9168 8.33332C47.9168 7.18273 48.8496 6.24999 50.0002 6.24999V2.08332C46.5484 2.08332 43.7502 4.88154 43.7502 8.33332H47.9168ZM50.0002 10.4167C48.8496 10.4167 47.9168 9.48392 47.9168 8.33332H43.7502C43.7502 11.7851 46.5484 14.5833 50.0002 14.5833V10.4167ZM50 8.33333V12.5C52.3012 12.5 54.1667 10.6345 54.1667 8.33333H50ZM50 8.33333H54.1667C54.1667 6.03215 52.3012 4.16667 50 4.16667V8.33333ZM50 8.33333V4.16667C47.6988 4.16667 45.8333 6.03215 45.8333 8.33333H50ZM50 8.33333H45.8333C45.8333 10.6345 47.6988 12.5 50 12.5V8.33333Z" fill="#D9D9D9" mask="url(#path-2-inside-1_125_4338)"/>
<mask id="path-4-inside-2_125_4338" fill="white">
<path fill-rule="evenodd" clip-rule="evenodd" d="M60.4167 41.6667C62.7179 41.6667 64.5833 39.8012 64.5833 37.5C64.5833 35.1988 62.7179 33.3333 60.4167 33.3333C58.1155 33.3333 56.25 35.1988 56.25 37.5C56.25 39.8012 58.1155 41.6667 60.4167 41.6667ZM60.4167 39.5833C61.5673 39.5833 62.5 38.6506 62.5 37.5C62.5 36.3494 61.5673 35.4167 60.4167 35.4167C59.2661 35.4167 58.3333 36.3494 58.3333 37.5C58.3333 38.6506 59.2661 39.5833 60.4167 39.5833Z"/>
</mask>
<path fill-rule="evenodd" clip-rule="evenodd" d="M60.4167 41.6667C62.7179 41.6667 64.5833 39.8012 64.5833 37.5C64.5833 35.1988 62.7179 33.3333 60.4167 33.3333C58.1155 33.3333 56.25 35.1988 56.25 37.5C56.25 39.8012 58.1155 41.6667 60.4167 41.6667ZM60.4167 39.5833C61.5673 39.5833 62.5 38.6506 62.5 37.5C62.5 36.3494 61.5673 35.4167 60.4167 35.4167C59.2661 35.4167 58.3333 36.3494 58.3333 37.5C58.3333 38.6506 59.2661 39.5833 60.4167 39.5833Z" fill="#989898"/>
<path d="M62.5 37.5C62.5 38.6506 61.5673 39.5833 60.4167 39.5833V43.75C63.8684 43.75 66.6667 40.9518 66.6667 37.5H62.5ZM60.4167 35.4167C61.5673 35.4167 62.5 36.3494 62.5 37.5H66.6667C66.6667 34.0482 63.8684 31.25 60.4167 31.25V35.4167ZM58.3333 37.5C58.3333 36.3494 59.2661 35.4167 60.4167 35.4167V31.25C56.9649 31.25 54.1667 34.0482 54.1667 37.5H58.3333ZM60.4167 39.5833C59.2661 39.5833 58.3333 38.6506 58.3333 37.5H54.1667C54.1667 40.9518 56.9649 43.75 60.4167 43.75V39.5833ZM60.4167 37.5V37.5V41.6667C62.7179 41.6667 64.5833 39.8012 64.5833 37.5H60.4167ZM60.4167 37.5H64.5833C64.5833 35.1988 62.7179 33.3333 60.4167 33.3333V37.5ZM60.4167 37.5V33.3333C58.1155 33.3333 56.25 35.1988 56.25 37.5H60.4167ZM60.4167 37.5V37.5H56.25C56.25 39.8012 58.1155 41.6667 60.4167 41.6667V37.5Z" fill="#D9D9D9" mask="url(#path-4-inside-2_125_4338)"/>
<mask id="path-6-inside-3_125_4338" fill="white">
<path fill-rule="evenodd" clip-rule="evenodd" d="M79.1667 83.3333C81.4679 83.3333 83.3333 81.4679 83.3333 79.1667C83.3333 76.8655 81.4679 75 79.1667 75C76.8655 75 75 76.8655 75 79.1667C75 81.4679 76.8655 83.3333 79.1667 83.3333ZM79.1667 81.25C80.3173 81.25 81.25 80.3173 81.25 79.1667C81.25 78.0161 80.3173 77.0833 79.1667 77.0833C78.0161 77.0833 77.0833 78.0161 77.0833 79.1667C77.0833 80.3173 78.0161 81.25 79.1667 81.25Z"/>
</mask>
<path fill-rule="evenodd" clip-rule="evenodd" d="M79.1667 83.3333C81.4679 83.3333 83.3333 81.4679 83.3333 79.1667C83.3333 76.8655 81.4679 75 79.1667 75C76.8655 75 75 76.8655 75 79.1667C75 81.4679 76.8655 83.3333 79.1667 83.3333ZM79.1667 81.25C80.3173 81.25 81.25 80.3173 81.25 79.1667C81.25 78.0161 80.3173 77.0833 79.1667 77.0833C78.0161 77.0833 77.0833 78.0161 77.0833 79.1667C77.0833 80.3173 78.0161 81.25 79.1667 81.25Z" fill="#989898"/>
<path d="M81.25 79.1667C81.25 80.3173 80.3173 81.25 79.1667 81.25V85.4167C82.6184 85.4167 85.4167 82.6184 85.4167 79.1667H81.25ZM79.1667 77.0833C80.3173 77.0833 81.25 78.0161 81.25 79.1667H85.4167C85.4167 75.7149 82.6184 72.9167 79.1667 72.9167V77.0833ZM77.0833 79.1667C77.0833 78.0161 78.0161 77.0833 79.1667 77.0833V72.9167C75.7149 72.9167 72.9167 75.7149 72.9167 79.1667H77.0833ZM79.1667 81.25C78.0161 81.25 77.0833 80.3173 77.0833 79.1667H72.9167C72.9167 82.6184 75.7149 85.4167 79.1667 85.4167V81.25ZM79.1667 79.1667L79.1667 79.1667V83.3333C81.4679 83.3333 83.3333 81.4679 83.3333 79.1667H79.1667ZM79.1667 79.1667H79.1667H83.3333C83.3333 76.8655 81.4678 75 79.1667 75V79.1667ZM79.1667 79.1667V75C76.8655 75 75 76.8655 75 79.1667H79.1667ZM79.1667 79.1667V79.1667H75C75 81.4678 76.8655 83.3333 79.1667 83.3333V79.1667Z" fill="#D9D9D9" mask="url(#path-6-inside-3_125_4338)"/>
<mask id="path-8-inside-4_125_4338" fill="white">
<path fill-rule="evenodd" clip-rule="evenodd" d="M91.6667 54.1667C93.9679 54.1667 95.8333 52.3012 95.8333 50C95.8333 47.6988 93.9679 45.8333 91.6667 45.8333C89.3655 45.8333 87.5 47.6988 87.5 50C87.5 52.3012 89.3655 54.1667 91.6667 54.1667ZM91.6667 52.0833C92.8173 52.0833 93.75 51.1506 93.75 50C93.75 48.8494 92.8173 47.9167 91.6667 47.9167C90.5161 47.9167 89.5833 48.8494 89.5833 50C89.5833 51.1506 90.5161 52.0833 91.6667 52.0833Z"/>
</mask>
<path fill-rule="evenodd" clip-rule="evenodd" d="M91.6667 54.1667C93.9679 54.1667 95.8333 52.3012 95.8333 50C95.8333 47.6988 93.9679 45.8333 91.6667 45.8333C89.3655 45.8333 87.5 47.6988 87.5 50C87.5 52.3012 89.3655 54.1667 91.6667 54.1667ZM91.6667 52.0833C92.8173 52.0833 93.75 51.1506 93.75 50C93.75 48.8494 92.8173 47.9167 91.6667 47.9167C90.5161 47.9167 89.5833 48.8494 89.5833 50C89.5833 51.1506 90.5161 52.0833 91.6667 52.0833Z" fill="#989898"/>
<path d="M93.75 50C93.75 51.1506 92.8173 52.0833 91.6667 52.0833V56.25C95.1184 56.25 97.9167 53.4518 97.9167 50H93.75ZM91.6667 47.9167C92.8173 47.9167 93.75 48.8494 93.75 50H97.9167C97.9167 46.5482 95.1184 43.75 91.6667 43.75V47.9167ZM89.5833 50C89.5833 48.8494 90.5161 47.9167 91.6667 47.9167V43.75C88.2149 43.75 85.4167 46.5482 85.4167 50H89.5833ZM91.6667 52.0833C90.5161 52.0833 89.5833 51.1506 89.5833 50H85.4167C85.4167 53.4518 88.2149 56.25 91.6667 56.25V52.0833ZM91.6667 50V54.1667C93.9678 54.1667 95.8333 52.3012 95.8333 50H91.6667ZM91.6667 50H95.8333C95.8333 47.6988 93.9678 45.8333 91.6667 45.8333V50ZM91.6667 50V45.8333C89.3655 45.8333 87.5 47.6988 87.5 50H91.6667ZM91.6667 50H87.5C87.5 52.3012 89.3655 54.1667 91.6667 54.1667V50Z" fill="#D9D9D9" mask="url(#path-8-inside-4_125_4338)"/>
<mask id="path-10-inside-5_125_4338" fill="white">
<path fill-rule="evenodd" clip-rule="evenodd" d="M8.33317 54.1667C10.6344 54.1667 12.4998 52.3012 12.4998 50C12.4998 47.6988 10.6344 45.8333 8.33317 45.8333C6.03198 45.8333 4.1665 47.6988 4.1665 50C4.1665 52.3012 6.03198 54.1667 8.33317 54.1667ZM8.33333 52.0833C9.48393 52.0833 10.4167 51.1506 10.4167 50C10.4167 48.8494 9.48393 47.9167 8.33333 47.9167C7.18274 47.9167 6.25 48.8494 6.25 50C6.25 51.1506 7.18274 52.0833 8.33333 52.0833Z"/>
</mask>
<path fill-rule="evenodd" clip-rule="evenodd" d="M8.33317 54.1667C10.6344 54.1667 12.4998 52.3012 12.4998 50C12.4998 47.6988 10.6344 45.8333 8.33317 45.8333C6.03198 45.8333 4.1665 47.6988 4.1665 50C4.1665 52.3012 6.03198 54.1667 8.33317 54.1667ZM8.33333 52.0833C9.48393 52.0833 10.4167 51.1506 10.4167 50C10.4167 48.8494 9.48393 47.9167 8.33333 47.9167C7.18274 47.9167 6.25 48.8494 6.25 50C6.25 51.1506 7.18274 52.0833 8.33333 52.0833Z" fill="#989898"/>
<path d="M10.4165 50C10.4165 51.1506 9.48376 52.0833 8.33317 52.0833V56.25C11.785 56.25 14.5832 53.4518 14.5832 50H10.4165ZM8.33317 47.9167C9.48376 47.9167 10.4165 48.8494 10.4165 50H14.5832C14.5832 46.5482 11.785 43.75 8.33317 43.75V47.9167ZM6.24984 50C6.24984 48.8494 7.18258 47.9167 8.33317 47.9167V43.75C4.88139 43.75 2.08317 46.5482 2.08317 50H6.24984ZM8.33317 52.0833C7.18258 52.0833 6.24984 51.1506 6.24984 50H2.08317C2.08317 53.4518 4.88139 56.25 8.33317 56.25V52.0833ZM8.33333 50V54.1667C10.6345 54.1667 12.5 52.3012 12.5 50H8.33333ZM8.33333 50H12.5C12.5 47.6988 10.6345 45.8333 8.33333 45.8333V50ZM8.33333 50V45.8333C6.03215 45.8333 4.16667 47.6988 4.16667 50H8.33333ZM8.33333 50H4.16667C4.16667 52.3012 6.03215 54.1667 8.33333 54.1667V50Z" fill="#D9D9D9" mask="url(#path-10-inside-5_125_4338)"/>
<mask id="path-12-inside-6_125_4338" fill="white">
<path fill-rule="evenodd" clip-rule="evenodd" d="M47.9167 64.5833C50.2179 64.5833 52.0833 62.7179 52.0833 60.4167C52.0833 58.1155 50.2179 56.25 47.9167 56.25C45.6155 56.25 43.75 58.1155 43.75 60.4167C43.75 62.7179 45.6155 64.5833 47.9167 64.5833ZM47.9167 62.5C49.0673 62.5 50 61.5673 50 60.4167C50 59.2661 49.0673 58.3333 47.9167 58.3333C46.7661 58.3333 45.8333 59.2661 45.8333 60.4167C45.8333 61.5673 46.7661 62.5 47.9167 62.5Z"/>
</mask>
<path fill-rule="evenodd" clip-rule="evenodd" d="M47.9167 64.5833C50.2179 64.5833 52.0833 62.7179 52.0833 60.4167C52.0833 58.1155 50.2179 56.25 47.9167 56.25C45.6155 56.25 43.75 58.1155 43.75 60.4167C43.75 62.7179 45.6155 64.5833 47.9167 64.5833ZM47.9167 62.5C49.0673 62.5 50 61.5673 50 60.4167C50 59.2661 49.0673 58.3333 47.9167 58.3333C46.7661 58.3333 45.8333 59.2661 45.8333 60.4167C45.8333 61.5673 46.7661 62.5 47.9167 62.5Z" fill="#989898"/>
<path d="M50 60.4167C50 61.5673 49.0673 62.5 47.9167 62.5V66.6667C51.3684 66.6667 54.1667 63.8684 54.1667 60.4167H50ZM47.9167 58.3333C49.0673 58.3333 50 59.2661 50 60.4167H54.1667C54.1667 56.9649 51.3684 54.1667 47.9167 54.1667V58.3333ZM45.8333 60.4167C45.8333 59.2661 46.7661 58.3333 47.9167 58.3333V54.1667C44.4649 54.1667 41.6667 56.9649 41.6667 60.4167H45.8333ZM47.9167 62.5C46.7661 62.5 45.8333 61.5673 45.8333 60.4167H41.6667C41.6667 63.8684 44.4649 66.6667 47.9167 66.6667V62.5ZM47.9167 60.4167V64.5833C50.2179 64.5833 52.0833 62.7179 52.0833 60.4167H47.9167ZM47.9167 60.4167H52.0833C52.0833 58.1155 50.2179 56.25 47.9167 56.25V60.4167ZM47.9167 60.4167V56.25C45.6155 56.25 43.75 58.1155 43.75 60.4167H47.9167ZM47.9167 60.4167H43.75C43.75 62.7179 45.6155 64.5833 47.9167 64.5833V60.4167Z" fill="#D9D9D9" mask="url(#path-12-inside-6_125_4338)"/>
<mask id="path-14-inside-7_125_4338" fill="white">
<path fill-rule="evenodd" clip-rule="evenodd" d="M20.8332 25C23.1344 25 24.9998 23.1345 24.9998 20.8333C24.9998 18.5321 23.1344 16.6667 20.8332 16.6667C18.532 16.6667 16.6665 18.5321 16.6665 20.8333C16.6665 23.1345 18.532 25 20.8332 25ZM20.8333 22.9167C21.9839 22.9167 22.9167 21.9839 22.9167 20.8333C22.9167 19.6827 21.9839 18.75 20.8333 18.75C19.6827 18.75 18.75 19.6827 18.75 20.8333C18.75 21.9839 19.6827 22.9167 20.8333 22.9167Z"/>
</mask>
<path fill-rule="evenodd" clip-rule="evenodd" d="M20.8332 25C23.1344 25 24.9998 23.1345 24.9998 20.8333C24.9998 18.5321 23.1344 16.6667 20.8332 16.6667C18.532 16.6667 16.6665 18.5321 16.6665 20.8333C16.6665 23.1345 18.532 25 20.8332 25ZM20.8333 22.9167C21.9839 22.9167 22.9167 21.9839 22.9167 20.8333C22.9167 19.6827 21.9839 18.75 20.8333 18.75C19.6827 18.75 18.75 19.6827 18.75 20.8333C18.75 21.9839 19.6827 22.9167 20.8333 22.9167Z" fill="#989898"/>
<path d="M22.9165 20.8333C22.9165 21.9839 21.9838 22.9167 20.8332 22.9167V27.0833C24.285 27.0833 27.0832 24.2851 27.0832 20.8333H22.9165ZM20.8332 18.75C21.9838 18.75 22.9165 19.6827 22.9165 20.8333H27.0832C27.0832 17.3815 24.285 14.5833 20.8332 14.5833V18.75ZM18.7498 20.8333C18.7498 19.6827 19.6826 18.75 20.8332 18.75V14.5833C17.3814 14.5833 14.5832 17.3815 14.5832 20.8333H18.7498ZM20.8332 22.9167C19.6826 22.9167 18.7498 21.9839 18.7498 20.8333H14.5832C14.5832 24.2851 17.3814 27.0833 20.8332 27.0833V22.9167ZM20.8333 20.8333L20.8333 20.8333V25C23.1345 25 25 23.1345 25 20.8333H20.8333ZM20.8333 20.8333H20.8333H25C25 18.5321 23.1345 16.6667 20.8333 16.6667V20.8333ZM20.8333 20.8333V16.6667C18.5321 16.6667 16.6667 18.5321 16.6667 20.8333H20.8333ZM20.8333 20.8333V20.8333H16.6667C16.6667 23.1345 18.5321 25 20.8333 25V20.8333Z" fill="#D9D9D9" mask="url(#path-14-inside-7_125_4338)"/>
<mask id="path-16-inside-8_125_4338" fill="white">
<path fill-rule="evenodd" clip-rule="evenodd" d="M79.1667 25C81.4679 25 83.3333 23.1345 83.3333 20.8333C83.3333 18.5321 81.4679 16.6667 79.1667 16.6667C76.8655 16.6667 75 18.5321 75 20.8333C75 23.1345 76.8655 25 79.1667 25ZM79.1667 22.9167C80.3173 22.9167 81.25 21.9839 81.25 20.8333C81.25 19.6827 80.3173 18.75 79.1667 18.75C78.0161 18.75 77.0833 19.6827 77.0833 20.8333C77.0833 21.9839 78.0161 22.9167 79.1667 22.9167Z"/>
</mask>
<path fill-rule="evenodd" clip-rule="evenodd" d="M79.1667 25C81.4679 25 83.3333 23.1345 83.3333 20.8333C83.3333 18.5321 81.4679 16.6667 79.1667 16.6667C76.8655 16.6667 75 18.5321 75 20.8333C75 23.1345 76.8655 25 79.1667 25ZM79.1667 22.9167C80.3173 22.9167 81.25 21.9839 81.25 20.8333C81.25 19.6827 80.3173 18.75 79.1667 18.75C78.0161 18.75 77.0833 19.6827 77.0833 20.8333C77.0833 21.9839 78.0161 22.9167 79.1667 22.9167Z" fill="#989898"/>
<path d="M81.25 20.8333C81.25 21.9839 80.3173 22.9167 79.1667 22.9167V27.0833C82.6184 27.0833 85.4167 24.2851 85.4167 20.8333H81.25ZM79.1667 18.75C80.3173 18.75 81.25 19.6827 81.25 20.8333H85.4167C85.4167 17.3815 82.6184 14.5833 79.1667 14.5833V18.75ZM77.0833 20.8333C77.0833 19.6827 78.0161 18.75 79.1667 18.75V14.5833C75.7149 14.5833 72.9167 17.3815 72.9167 20.8333H77.0833ZM79.1667 22.9167C78.0161 22.9167 77.0833 21.9839 77.0833 20.8333H72.9167C72.9167 24.2851 75.7149 27.0833 79.1667 27.0833V22.9167ZM79.1667 20.8333L79.1667 20.8333V25C81.4679 25 83.3333 23.1345 83.3333 20.8333H79.1667ZM79.1667 20.8333H79.1667H83.3333C83.3333 18.5321 81.4678 16.6667 79.1667 16.6667V20.8333ZM79.1667 20.8333V16.6667C76.8655 16.6667 75 18.5321 75 20.8333H79.1667ZM79.1667 20.8333V20.8333H75C75 23.1345 76.8655 25 79.1667 25V20.8333Z" fill="#D9D9D9" mask="url(#path-16-inside-8_125_4338)"/>
<path d="M18.75 91.6667V12.5H37.5V75H75V91.6667H18.75Z" fill="white"/>
<path d="M25 8.33334L18.75 12.5H37.5L43.75 8.33334H25Z" fill="#D9D9D9"/>
<path d="M43.75 8.33334L37.5 12.5V75L43.75 70.8333V8.33334Z" fill="#989898"/>
<path d="M43.75 70.8333L37.5 75H75L81.25 70.8333H43.75Z" fill="#D9D9D9"/>
<path d="M81.25 70.8333L75 75V91.6667L81.25 87.5V70.8333Z" fill="#989898"/>
</svg>
