<svg width="243" height="216" viewBox="0 0 243 216" fill="none" xmlns="http://www.w3.org/2000/svg">
<path d="M46.6445 207.406C46.6445 207.074 46.5924 206.781 46.4883 206.527C46.3906 206.267 46.2148 206.033 45.9609 205.824C45.7135 205.616 45.3685 205.417 44.9258 205.229C44.4896 205.04 43.9362 204.848 43.2656 204.652C42.5625 204.444 41.9277 204.213 41.3613 203.959C40.7949 203.699 40.3099 203.402 39.9062 203.07C39.5026 202.738 39.1934 202.357 38.9785 201.928C38.7637 201.498 38.6562 201.007 38.6562 200.453C38.6562 199.9 38.7702 199.389 38.998 198.92C39.2259 198.451 39.5514 198.044 39.9746 197.699C40.4043 197.348 40.9154 197.074 41.5078 196.879C42.1003 196.684 42.7611 196.586 43.4902 196.586C44.5579 196.586 45.4629 196.791 46.2051 197.201C46.9538 197.605 47.5234 198.135 47.9141 198.793C48.3047 199.444 48.5 200.141 48.5 200.883H46.625C46.625 200.349 46.5111 199.877 46.2832 199.467C46.0553 199.05 45.7103 198.725 45.248 198.49C44.7858 198.249 44.1999 198.129 43.4902 198.129C42.8197 198.129 42.2663 198.23 41.8301 198.432C41.3939 198.633 41.0684 198.907 40.8535 199.252C40.6452 199.597 40.541 199.991 40.541 200.434C40.541 200.733 40.6029 201.007 40.7266 201.254C40.8568 201.495 41.0553 201.719 41.3223 201.928C41.5957 202.136 41.9408 202.328 42.3574 202.504C42.7806 202.68 43.2852 202.849 43.8711 203.012C44.6784 203.24 45.375 203.493 45.9609 203.773C46.5469 204.053 47.0286 204.369 47.4062 204.721C47.7904 205.066 48.0736 205.46 48.2559 205.902C48.4447 206.339 48.5391 206.833 48.5391 207.387C48.5391 207.966 48.4219 208.49 48.1875 208.959C47.9531 209.428 47.6178 209.828 47.1816 210.16C46.7454 210.492 46.2214 210.749 45.6094 210.932C45.0039 211.107 44.3268 211.195 43.5781 211.195C42.9206 211.195 42.2728 211.104 41.6348 210.922C41.0033 210.74 40.4271 210.466 39.9062 210.102C39.3919 209.737 38.9785 209.288 38.666 208.754C38.36 208.214 38.207 207.589 38.207 206.879H40.082C40.082 207.367 40.1764 207.787 40.3652 208.139C40.554 208.484 40.8112 208.77 41.1367 208.998C41.4688 209.226 41.8431 209.395 42.2598 209.506C42.6829 209.61 43.1224 209.662 43.5781 209.662C44.2357 209.662 44.7923 209.571 45.248 209.389C45.7038 209.206 46.0488 208.946 46.2832 208.607C46.5241 208.269 46.6445 207.868 46.6445 207.406ZM52.6309 200.434V211H50.8145V200.434H52.6309ZM50.6777 197.631C50.6777 197.338 50.7656 197.09 50.9414 196.889C51.1237 196.687 51.3906 196.586 51.7422 196.586C52.0872 196.586 52.3509 196.687 52.5332 196.889C52.722 197.09 52.8164 197.338 52.8164 197.631C52.8164 197.911 52.722 198.152 52.5332 198.354C52.3509 198.549 52.0872 198.646 51.7422 198.646C51.3906 198.646 51.1237 198.549 50.9414 198.354C50.7656 198.152 50.6777 197.911 50.6777 197.631ZM62.377 200.434H64.0176V210.775C64.0176 211.706 63.8288 212.501 63.4512 213.158C63.0736 213.816 62.5462 214.314 61.8691 214.652C61.1986 214.997 60.4238 215.17 59.5449 215.17C59.1803 215.17 58.7507 215.111 58.2559 214.994C57.7676 214.883 57.2858 214.691 56.8105 214.418C56.3418 214.151 55.9479 213.79 55.6289 213.334L56.5762 212.26C57.0189 212.794 57.4811 213.165 57.9629 213.373C58.4512 213.581 58.9329 213.686 59.4082 213.686C59.9811 213.686 60.4759 213.578 60.8926 213.363C61.3092 213.148 61.6315 212.829 61.8594 212.406C62.0938 211.99 62.2109 211.475 62.2109 210.863V202.758L62.377 200.434ZM55.1016 205.834V205.629C55.1016 204.822 55.196 204.089 55.3848 203.432C55.5801 202.768 55.8568 202.198 56.2148 201.723C56.5794 201.247 57.0189 200.883 57.5332 200.629C58.0475 200.368 58.627 200.238 59.2715 200.238C59.9355 200.238 60.515 200.355 61.0098 200.59C61.5111 200.818 61.9342 201.153 62.2793 201.596C62.6309 202.032 62.9076 202.559 63.1094 203.178C63.3112 203.796 63.4512 204.496 63.5293 205.277V206.176C63.4577 206.951 63.3177 207.647 63.1094 208.266C62.9076 208.884 62.6309 209.411 62.2793 209.848C61.9342 210.284 61.5111 210.619 61.0098 210.854C60.5085 211.081 59.9225 211.195 59.252 211.195C58.6204 211.195 58.0475 211.062 57.5332 210.795C57.0254 210.528 56.5892 210.154 56.2246 209.672C55.86 209.19 55.5801 208.624 55.3848 207.973C55.196 207.315 55.1016 206.602 55.1016 205.834ZM56.9082 205.629V205.834C56.9082 206.361 56.9603 206.856 57.0645 207.318C57.1751 207.781 57.3411 208.188 57.5625 208.539C57.7904 208.891 58.0801 209.167 58.4316 209.369C58.7832 209.564 59.2031 209.662 59.6914 209.662C60.2904 209.662 60.7852 209.535 61.1758 209.281C61.5664 209.027 61.8757 208.692 62.1035 208.275C62.3379 207.859 62.5202 207.406 62.6504 206.918V204.564C62.5788 204.206 62.4681 203.861 62.3184 203.529C62.1751 203.191 61.9863 202.891 61.752 202.631C61.5241 202.364 61.2409 202.152 60.9023 201.996C60.5638 201.84 60.1667 201.762 59.7109 201.762C59.2161 201.762 58.7897 201.866 58.4316 202.074C58.0801 202.276 57.7904 202.556 57.5625 202.914C57.3411 203.266 57.1751 203.676 57.0645 204.145C56.9603 204.607 56.9082 205.102 56.9082 205.629ZM68.5684 202.689V211H66.7617V200.434H68.4707L68.5684 202.689ZM68.1387 205.316L67.3867 205.287C67.3932 204.564 67.5007 203.897 67.709 203.285C67.9173 202.667 68.2103 202.13 68.5879 201.674C68.9655 201.218 69.4147 200.867 69.9355 200.619C70.4629 200.365 71.0456 200.238 71.6836 200.238C72.2044 200.238 72.6732 200.31 73.0898 200.453C73.5065 200.59 73.8613 200.811 74.1543 201.117C74.4538 201.423 74.6816 201.82 74.8379 202.309C74.9941 202.79 75.0723 203.38 75.0723 204.076V211H73.2559V204.057C73.2559 203.503 73.1745 203.061 73.0117 202.729C72.849 202.39 72.6113 202.146 72.2988 201.996C71.9863 201.84 71.6022 201.762 71.1465 201.762C70.6973 201.762 70.2871 201.856 69.916 202.045C69.5514 202.234 69.2357 202.494 68.9688 202.826C68.7083 203.158 68.5033 203.539 68.3535 203.969C68.2103 204.392 68.1387 204.841 68.1387 205.316ZM84.7402 200.434V211H82.9238V200.434H84.7402ZM82.7871 197.631C82.7871 197.338 82.875 197.09 83.0508 196.889C83.2331 196.687 83.5 196.586 83.8516 196.586C84.1966 196.586 84.4603 196.687 84.6426 196.889C84.8314 197.09 84.9258 197.338 84.9258 197.631C84.9258 197.911 84.8314 198.152 84.6426 198.354C84.4603 198.549 84.1966 198.646 83.8516 198.646C83.5 198.646 83.2331 198.549 83.0508 198.354C82.875 198.152 82.7871 197.911 82.7871 197.631ZM89.4473 202.689V211H87.6406V200.434H89.3496L89.4473 202.689ZM89.0176 205.316L88.2656 205.287C88.2721 204.564 88.3796 203.897 88.5879 203.285C88.7962 202.667 89.0892 202.13 89.4668 201.674C89.8444 201.218 90.2936 200.867 90.8145 200.619C91.3418 200.365 91.9245 200.238 92.5625 200.238C93.0833 200.238 93.5521 200.31 93.9688 200.453C94.3854 200.59 94.7402 200.811 95.0332 201.117C95.3327 201.423 95.5605 201.82 95.7168 202.309C95.873 202.79 95.9512 203.38 95.9512 204.076V211H94.1348V204.057C94.1348 203.503 94.0534 203.061 93.8906 202.729C93.7279 202.39 93.4902 202.146 93.1777 201.996C92.8652 201.84 92.4811 201.762 92.0254 201.762C91.5762 201.762 91.166 201.856 90.7949 202.045C90.4303 202.234 90.1146 202.494 89.8477 202.826C89.5872 203.158 89.3822 203.539 89.2324 203.969C89.0892 204.392 89.0176 204.841 89.0176 205.316ZM108.08 200.434V201.82H102.367V200.434H108.08ZM104.301 197.865H106.107V208.383C106.107 208.741 106.163 209.011 106.273 209.193C106.384 209.376 106.527 209.496 106.703 209.555C106.879 209.613 107.068 209.643 107.27 209.643C107.419 209.643 107.576 209.63 107.738 209.604C107.908 209.571 108.035 209.545 108.119 209.525L108.129 211C107.986 211.046 107.797 211.088 107.562 211.127C107.335 211.173 107.058 211.195 106.732 211.195C106.29 211.195 105.883 211.107 105.512 210.932C105.141 210.756 104.844 210.463 104.623 210.053C104.408 209.636 104.301 209.076 104.301 208.373V197.865ZM109.525 205.834V205.609C109.525 204.848 109.636 204.141 109.857 203.49C110.079 202.833 110.398 202.263 110.814 201.781C111.231 201.293 111.736 200.915 112.328 200.648C112.921 200.375 113.585 200.238 114.32 200.238C115.062 200.238 115.73 200.375 116.322 200.648C116.921 200.915 117.429 201.293 117.846 201.781C118.269 202.263 118.591 202.833 118.812 203.49C119.034 204.141 119.145 204.848 119.145 205.609V205.834C119.145 206.596 119.034 207.302 118.812 207.953C118.591 208.604 118.269 209.174 117.846 209.662C117.429 210.144 116.924 210.521 116.332 210.795C115.746 211.062 115.082 211.195 114.34 211.195C113.598 211.195 112.93 211.062 112.338 210.795C111.745 210.521 111.238 210.144 110.814 209.662C110.398 209.174 110.079 208.604 109.857 207.953C109.636 207.302 109.525 206.596 109.525 205.834ZM111.332 205.609V205.834C111.332 206.361 111.394 206.859 111.518 207.328C111.641 207.79 111.827 208.201 112.074 208.559C112.328 208.917 112.644 209.2 113.021 209.408C113.399 209.61 113.839 209.711 114.34 209.711C114.835 209.711 115.268 209.61 115.639 209.408C116.016 209.2 116.329 208.917 116.576 208.559C116.824 208.201 117.009 207.79 117.133 207.328C117.263 206.859 117.328 206.361 117.328 205.834V205.609C117.328 205.089 117.263 204.597 117.133 204.135C117.009 203.666 116.82 203.253 116.566 202.895C116.319 202.53 116.007 202.243 115.629 202.035C115.258 201.827 114.822 201.723 114.32 201.723C113.826 201.723 113.389 201.827 113.012 202.035C112.641 202.243 112.328 202.53 112.074 202.895C111.827 203.253 111.641 203.666 111.518 204.135C111.394 204.597 111.332 205.089 111.332 205.609ZM135.229 206.479H137.104C137.006 207.377 136.749 208.181 136.332 208.891C135.915 209.6 135.326 210.163 134.564 210.58C133.803 210.99 132.852 211.195 131.713 211.195C130.88 211.195 130.121 211.039 129.438 210.727C128.76 210.414 128.178 209.971 127.689 209.398C127.201 208.819 126.824 208.126 126.557 207.318C126.296 206.505 126.166 205.6 126.166 204.604V203.188C126.166 202.191 126.296 201.29 126.557 200.482C126.824 199.669 127.204 198.972 127.699 198.393C128.201 197.813 128.803 197.367 129.506 197.055C130.209 196.742 131 196.586 131.879 196.586C132.953 196.586 133.861 196.788 134.604 197.191C135.346 197.595 135.922 198.155 136.332 198.871C136.749 199.581 137.006 200.404 137.104 201.342H135.229C135.137 200.678 134.968 200.108 134.721 199.633C134.473 199.151 134.122 198.78 133.666 198.52C133.21 198.259 132.615 198.129 131.879 198.129C131.247 198.129 130.691 198.249 130.209 198.49C129.734 198.731 129.333 199.073 129.008 199.516C128.689 199.958 128.448 200.489 128.285 201.107C128.122 201.726 128.041 202.413 128.041 203.168V204.604C128.041 205.3 128.113 205.954 128.256 206.566C128.406 207.178 128.63 207.715 128.93 208.178C129.229 208.64 129.61 209.005 130.072 209.271C130.535 209.532 131.081 209.662 131.713 209.662C132.514 209.662 133.152 209.535 133.627 209.281C134.102 209.027 134.46 208.663 134.701 208.188C134.949 207.712 135.124 207.143 135.229 206.479ZM138.92 205.834V205.609C138.92 204.848 139.031 204.141 139.252 203.49C139.473 202.833 139.792 202.263 140.209 201.781C140.626 201.293 141.13 200.915 141.723 200.648C142.315 200.375 142.979 200.238 143.715 200.238C144.457 200.238 145.124 200.375 145.717 200.648C146.316 200.915 146.824 201.293 147.24 201.781C147.663 202.263 147.986 202.833 148.207 203.49C148.428 204.141 148.539 204.848 148.539 205.609V205.834C148.539 206.596 148.428 207.302 148.207 207.953C147.986 208.604 147.663 209.174 147.24 209.662C146.824 210.144 146.319 210.521 145.727 210.795C145.141 211.062 144.477 211.195 143.734 211.195C142.992 211.195 142.325 211.062 141.732 210.795C141.14 210.521 140.632 210.144 140.209 209.662C139.792 209.174 139.473 208.604 139.252 207.953C139.031 207.302 138.92 206.596 138.92 205.834ZM140.727 205.609V205.834C140.727 206.361 140.788 206.859 140.912 207.328C141.036 207.79 141.221 208.201 141.469 208.559C141.723 208.917 142.038 209.2 142.416 209.408C142.794 209.61 143.233 209.711 143.734 209.711C144.229 209.711 144.662 209.61 145.033 209.408C145.411 209.2 145.723 208.917 145.971 208.559C146.218 208.201 146.404 207.79 146.527 207.328C146.658 206.859 146.723 206.361 146.723 205.834V205.609C146.723 205.089 146.658 204.597 146.527 204.135C146.404 203.666 146.215 203.253 145.961 202.895C145.714 202.53 145.401 202.243 145.023 202.035C144.652 201.827 144.216 201.723 143.715 201.723C143.22 201.723 142.784 201.827 142.406 202.035C142.035 202.243 141.723 202.53 141.469 202.895C141.221 203.253 141.036 203.666 140.912 204.135C140.788 204.597 140.727 205.089 140.727 205.609ZM152.611 202.689V211H150.805V200.434H152.514L152.611 202.689ZM152.182 205.316L151.43 205.287C151.436 204.564 151.544 203.897 151.752 203.285C151.96 202.667 152.253 202.13 152.631 201.674C153.008 201.218 153.458 200.867 153.979 200.619C154.506 200.365 155.089 200.238 155.727 200.238C156.247 200.238 156.716 200.31 157.133 200.453C157.549 200.59 157.904 200.811 158.197 201.117C158.497 201.423 158.725 201.82 158.881 202.309C159.037 202.79 159.115 203.38 159.115 204.076V211H157.299V204.057C157.299 203.503 157.217 203.061 157.055 202.729C156.892 202.39 156.654 202.146 156.342 201.996C156.029 201.84 155.645 201.762 155.189 201.762C154.74 201.762 154.33 201.856 153.959 202.045C153.594 202.234 153.279 202.494 153.012 202.826C152.751 203.158 152.546 203.539 152.396 203.969C152.253 204.392 152.182 204.841 152.182 205.316ZM166.283 200.434V201.82H160.57V200.434H166.283ZM162.504 197.865H164.311V208.383C164.311 208.741 164.366 209.011 164.477 209.193C164.587 209.376 164.73 209.496 164.906 209.555C165.082 209.613 165.271 209.643 165.473 209.643C165.622 209.643 165.779 209.63 165.941 209.604C166.111 209.571 166.238 209.545 166.322 209.525L166.332 211C166.189 211.046 166 211.088 165.766 211.127C165.538 211.173 165.261 211.195 164.936 211.195C164.493 211.195 164.086 211.107 163.715 210.932C163.344 210.756 163.048 210.463 162.826 210.053C162.611 209.636 162.504 209.076 162.504 208.373V197.865ZM170.365 200.434V211H168.549V200.434H170.365ZM168.412 197.631C168.412 197.338 168.5 197.09 168.676 196.889C168.858 196.687 169.125 196.586 169.477 196.586C169.822 196.586 170.085 196.687 170.268 196.889C170.456 197.09 170.551 197.338 170.551 197.631C170.551 197.911 170.456 198.152 170.268 198.354C170.085 198.549 169.822 198.646 169.477 198.646C169.125 198.646 168.858 198.549 168.676 198.354C168.5 198.152 168.412 197.911 168.412 197.631ZM175.072 202.689V211H173.266V200.434H174.975L175.072 202.689ZM174.643 205.316L173.891 205.287C173.897 204.564 174.005 203.897 174.213 203.285C174.421 202.667 174.714 202.13 175.092 201.674C175.469 201.218 175.919 200.867 176.439 200.619C176.967 200.365 177.549 200.238 178.188 200.238C178.708 200.238 179.177 200.31 179.594 200.453C180.01 200.59 180.365 200.811 180.658 201.117C180.958 201.423 181.186 201.82 181.342 202.309C181.498 202.79 181.576 203.38 181.576 204.076V211H179.76V204.057C179.76 203.503 179.678 203.061 179.516 202.729C179.353 202.39 179.115 202.146 178.803 201.996C178.49 201.84 178.106 201.762 177.65 201.762C177.201 201.762 176.791 201.856 176.42 202.045C176.055 202.234 175.74 202.494 175.473 202.826C175.212 203.158 175.007 203.539 174.857 203.969C174.714 204.392 174.643 204.841 174.643 205.316ZM190.785 208.559V200.434H192.602V211H190.873L190.785 208.559ZM191.127 206.332L191.879 206.312C191.879 207.016 191.804 207.667 191.654 208.266C191.511 208.858 191.277 209.372 190.951 209.809C190.626 210.245 190.199 210.587 189.672 210.834C189.145 211.075 188.503 211.195 187.748 211.195C187.234 211.195 186.762 211.12 186.332 210.971C185.909 210.821 185.544 210.59 185.238 210.277C184.932 209.965 184.695 209.558 184.525 209.057C184.363 208.555 184.281 207.953 184.281 207.25V200.434H186.088V207.27C186.088 207.745 186.14 208.139 186.244 208.451C186.355 208.757 186.501 209.001 186.684 209.184C186.872 209.359 187.081 209.483 187.309 209.555C187.543 209.626 187.784 209.662 188.031 209.662C188.799 209.662 189.408 209.516 189.857 209.223C190.307 208.923 190.629 208.523 190.824 208.021C191.026 207.514 191.127 206.951 191.127 206.332ZM199.74 211.195C199.005 211.195 198.337 211.072 197.738 210.824C197.146 210.57 196.635 210.215 196.205 209.76C195.782 209.304 195.456 208.764 195.229 208.139C195.001 207.514 194.887 206.83 194.887 206.088V205.678C194.887 204.818 195.014 204.053 195.268 203.383C195.521 202.706 195.867 202.133 196.303 201.664C196.739 201.195 197.234 200.84 197.787 200.6C198.34 200.359 198.913 200.238 199.506 200.238C200.261 200.238 200.912 200.368 201.459 200.629C202.012 200.889 202.465 201.254 202.816 201.723C203.168 202.185 203.428 202.732 203.598 203.363C203.767 203.988 203.852 204.672 203.852 205.414V206.225H195.961V204.75H202.045V204.613C202.019 204.145 201.921 203.689 201.752 203.246C201.589 202.803 201.329 202.439 200.971 202.152C200.613 201.866 200.124 201.723 199.506 201.723C199.096 201.723 198.718 201.811 198.373 201.986C198.028 202.156 197.732 202.41 197.484 202.748C197.237 203.087 197.045 203.5 196.908 203.988C196.771 204.477 196.703 205.04 196.703 205.678V206.088C196.703 206.589 196.771 207.061 196.908 207.504C197.051 207.94 197.257 208.324 197.523 208.656C197.797 208.988 198.126 209.249 198.51 209.438C198.9 209.626 199.343 209.721 199.838 209.721C200.476 209.721 201.016 209.59 201.459 209.33C201.902 209.07 202.289 208.721 202.621 208.285L203.715 209.154C203.487 209.499 203.197 209.828 202.846 210.141C202.494 210.453 202.061 210.707 201.547 210.902C201.039 211.098 200.437 211.195 199.74 211.195Z" fill="white"/>
<path d="M3.3925 165V137.08H9.4725V159.6H20.1125V165H3.3925ZM25.5234 165V160.16H29.1234V141.92H25.5234V137.08H38.8034V141.92H35.2034V160.16H38.8034V165H25.5234ZM45.8691 165V137.08H64.3891V142.48H51.9491V148.2H62.5491V153.56H51.9491V165H45.8691ZM71.2675 165V137.08H90.2675V142.48H77.3475V148.2H88.4275V153.56H77.3475V159.6H90.2675V165H71.2675ZM109.018 137.08H122.578C124.898 137.08 126.698 137.733 127.977 139.04C129.284 140.347 129.938 142.08 129.938 144.24C129.938 145.307 129.791 146.213 129.498 146.96C129.231 147.707 128.858 148.32 128.378 148.8C127.924 149.28 127.378 149.64 126.738 149.88C126.124 150.093 125.458 150.213 124.738 150.24V150.48C125.404 150.48 126.098 150.6 126.818 150.84C127.564 151.08 128.244 151.467 128.858 152C129.471 152.507 129.978 153.173 130.378 154C130.804 154.827 131.018 155.84 131.018 157.04C131.018 158.133 130.831 159.173 130.458 160.16C130.111 161.12 129.618 161.96 128.978 162.68C128.338 163.4 127.578 163.973 126.698 164.4C125.818 164.8 124.858 165 123.818 165H109.018V137.08ZM115.098 159.88H122.098C122.898 159.88 123.524 159.667 123.978 159.24C124.458 158.787 124.698 158.16 124.698 157.36V156C124.698 155.2 124.458 154.587 123.978 154.16C123.524 153.707 122.898 153.48 122.098 153.48H115.098V159.88ZM115.098 148.52H121.138C121.938 148.52 122.564 148.293 123.018 147.84C123.471 147.387 123.698 146.76 123.698 145.96V144.76C123.698 143.96 123.471 143.333 123.018 142.88C122.564 142.427 121.938 142.2 121.138 142.2H115.098V148.52ZM137.697 165V137.08H143.777V159.6H154.417V165H137.697ZM170.507 165.48C168.667 165.48 166.987 165.173 165.467 164.56C163.947 163.947 162.653 163.04 161.587 161.84C160.52 160.613 159.693 159.107 159.107 157.32C158.52 155.507 158.227 153.413 158.227 151.04C158.227 148.667 158.52 146.587 159.107 144.8C159.693 142.987 160.52 141.48 161.587 140.28C162.653 139.053 163.947 138.133 165.467 137.52C166.987 136.907 168.667 136.6 170.507 136.6C172.347 136.6 174.027 136.907 175.547 137.52C177.067 138.133 178.36 139.053 179.427 140.28C180.493 141.48 181.32 142.987 181.907 144.8C182.493 146.587 182.787 148.667 182.787 151.04C182.787 153.413 182.493 155.507 181.907 157.32C181.32 159.107 180.493 160.613 179.427 161.84C178.36 163.04 177.067 163.947 175.547 164.56C174.027 165.173 172.347 165.48 170.507 165.48ZM170.507 160.08C172.347 160.08 173.773 159.48 174.787 158.28C175.827 157.08 176.347 155.36 176.347 153.12V148.96C176.347 146.72 175.827 145 174.787 143.8C173.773 142.6 172.347 142 170.507 142C168.667 142 167.227 142.6 166.187 143.8C165.173 145 164.667 146.72 164.667 148.96V153.12C164.667 155.36 165.173 157.08 166.187 158.28C167.227 159.48 168.667 160.08 170.507 160.08ZM201.141 165.48C199.248 165.48 197.541 165.187 196.021 164.6C194.501 163.987 193.208 163.093 192.141 161.92C191.075 160.72 190.248 159.24 189.661 157.48C189.075 155.693 188.781 153.613 188.781 151.24C188.781 148.893 189.075 146.813 189.661 145C190.248 143.16 191.075 141.627 192.141 140.4C193.208 139.147 194.501 138.2 196.021 137.56C197.541 136.92 199.248 136.6 201.141 136.6C203.728 136.6 205.861 137.133 207.541 138.2C209.221 139.24 210.568 140.893 211.581 143.16L206.341 145.88C205.968 144.707 205.381 143.773 204.581 143.08C203.808 142.36 202.661 142 201.141 142C199.355 142 197.915 142.587 196.821 143.76C195.755 144.907 195.221 146.587 195.221 148.8V153.28C195.221 155.493 195.755 157.187 196.821 158.36C197.915 159.507 199.355 160.08 201.141 160.08C202.635 160.08 203.821 159.68 204.701 158.88C205.608 158.053 206.275 157.067 206.701 155.92L211.661 158.8C210.621 160.933 209.248 162.587 207.541 163.76C205.861 164.907 203.728 165.48 201.141 165.48ZM227.636 152.84L223.996 157.24V165H217.916V137.08H223.996V150.36H224.236L228.196 144.96L234.476 137.08H241.356L231.956 148.56L242.196 165H235.036L227.636 152.84Z" fill="white"/>
<path fill-rule="evenodd" clip-rule="evenodd" d="M122.376 12.4833L130.079 34.0506C130.648 33.6641 131.318 33.4147 132.041 33.3501L124.338 11.7827C123.769 12.1692 123.099 12.4186 122.376 12.4833ZM124.537 11.6391L147.001 20.9442C147 20.9074 147 20.8704 147 20.8333C147 20.1307 147.174 19.4686 147.481 18.8879L125.85 9.92825C125.569 10.608 125.112 11.1969 124.537 11.6391ZM153.112 24.5189C152.531 24.8261 151.869 25 151.167 25C151.13 25 151.093 24.9995 151.056 24.9985L160.361 47.4633C160.803 46.888 161.392 46.4313 162.072 46.1495L153.112 24.5189ZM162.072 53.8505C160.892 53.3614 159.986 52.3462 159.646 51.0977L142.337 60.9884L134.809 40.9121C134.245 41.3079 133.579 41.5677 132.858 41.6436L140.261 61.3842L124.079 60.6137C124.044 61.3684 123.808 62.0706 123.423 62.6681L139.887 63.4521L122.832 88.5859L121.163 64.3936C120.77 64.5169 120.351 64.5833 119.917 64.5833C119.631 64.5833 119.352 64.5546 119.082 64.4998L120.765 88.9001L95.8043 78.5611L117.873 64.0487C117.244 63.6937 116.716 63.1797 116.344 62.5612L94.7965 76.7304L107.516 46.0235L116.341 58.2763C116.708 57.665 117.227 57.1556 117.845 56.8004L109.008 44.5304L128.763 39.5044C128.436 38.9097 128.25 38.2266 128.25 37.5C128.25 37.4951 128.25 37.4901 128.25 37.4852L109.027 42.3759L121.418 12.4597C120.702 12.3597 120.045 12.0778 119.494 11.6622L107.076 41.6403L95.8002 23.7588C95.3113 24.2546 94.699 24.6285 94.0131 24.8306L105.602 43.2076L84.0387 48.0925C84.3335 48.664 84.5 49.3126 84.5 50C84.5 50.0417 84.4993 50.0832 84.4981 50.1245L105.536 45.3586L93.1009 75.3798L83.639 52.5367C83.1969 53.112 82.6079 53.5686 81.9282 53.8505L91.9734 78.1018L92.1313 78.483L92.5372 79.4628L93.4996 79.8614L93.7004 79.9446L120.925 91.2214L122 91.6667L123.015 91.2462L123.751 90.9414L147.481 81.1121C147.174 80.5313 147 79.8693 147 79.1667C147 79.1296 147 79.0926 147.001 79.0557L125.879 87.8048L141.715 64.4684L148.346 76.0996C148.857 75.6294 149.486 75.2852 150.184 75.1166L143.212 62.8881L160.061 53.2599L151.056 75.0014C151.093 75.0005 151.13 75 151.167 75C151.869 75 152.531 75.1739 153.112 75.4811L162.072 53.8505ZM81.9282 46.1495C82.6079 46.4313 83.1969 46.888 83.639 47.4633L92.9442 24.9985C92.9074 24.9995 92.8704 25 92.8333 25C92.1306 25 91.4686 24.8261 90.8879 24.5189L81.9282 46.1495ZM96.5189 18.8879C96.826 19.4686 97 20.1307 97 20.8333C97 20.8704 96.9995 20.9074 96.9985 20.9442L119.463 11.6391C118.888 11.1969 118.431 10.608 118.149 9.92825L96.5189 18.8879ZM135.776 39.9656L159.534 49.4687C159.625 48.7509 159.899 48.0901 160.307 47.5344L136.55 38.0313C136.458 38.7491 136.184 39.4099 135.776 39.9656ZM136.123 35.5941L148.826 24.2807C148.245 23.8855 147.769 23.3474 147.449 22.717L134.737 34.0386C135.32 34.4304 135.799 34.9658 136.123 35.5941Z" fill="#989898"/>
<mask id="path-4-inside-1_125_4329" fill="white">
<path fill-rule="evenodd" clip-rule="evenodd" d="M122 12.5C124.301 12.5 126.167 10.6345 126.167 8.33332C126.167 6.03214 124.301 4.16666 122 4.16666C119.699 4.16666 117.833 6.03214 117.833 8.33332C117.833 10.6345 119.699 12.5 122 12.5ZM122 10.4167C123.151 10.4167 124.083 9.48393 124.083 8.33333C124.083 7.18274 123.151 6.25 122 6.25C120.849 6.25 119.917 7.18274 119.917 8.33333C119.917 9.48393 120.849 10.4167 122 10.4167Z"/>
</mask>
<path fill-rule="evenodd" clip-rule="evenodd" d="M122 12.5C124.301 12.5 126.167 10.6345 126.167 8.33332C126.167 6.03214 124.301 4.16666 122 4.16666C119.699 4.16666 117.833 6.03214 117.833 8.33332C117.833 10.6345 119.699 12.5 122 12.5ZM122 10.4167C123.151 10.4167 124.083 9.48393 124.083 8.33333C124.083 7.18274 123.151 6.25 122 6.25C120.849 6.25 119.917 7.18274 119.917 8.33333C119.917 9.48393 120.849 10.4167 122 10.4167Z" fill="#989898"/>
<path d="M124.083 8.33332C124.083 9.48392 123.151 10.4167 122 10.4167V14.5833C125.452 14.5833 128.25 11.7851 128.25 8.33332H124.083ZM122 6.24999C123.151 6.24999 124.083 7.18273 124.083 8.33332H128.25C128.25 4.88154 125.452 2.08332 122 2.08332V6.24999ZM119.917 8.33332C119.917 7.18273 120.85 6.24999 122 6.24999V2.08332C118.548 2.08332 115.75 4.88154 115.75 8.33332H119.917ZM122 10.4167C120.85 10.4167 119.917 9.48392 119.917 8.33332H115.75C115.75 11.7851 118.548 14.5833 122 14.5833V10.4167ZM122 8.33333V12.5C124.301 12.5 126.167 10.6345 126.167 8.33333H122ZM122 8.33333H126.167C126.167 6.03215 124.301 4.16667 122 4.16667V8.33333ZM122 8.33333V4.16667C119.699 4.16667 117.833 6.03215 117.833 8.33333H122ZM122 8.33333H117.833C117.833 10.6345 119.699 12.5 122 12.5V8.33333Z" fill="#D9D9D9" mask="url(#path-4-inside-1_125_4329)"/>
<mask id="path-6-inside-2_125_4329" fill="white">
<path fill-rule="evenodd" clip-rule="evenodd" d="M132.417 41.6667C134.718 41.6667 136.583 39.8012 136.583 37.5C136.583 35.1988 134.718 33.3333 132.417 33.3333C130.115 33.3333 128.25 35.1988 128.25 37.5C128.25 39.8012 130.115 41.6667 132.417 41.6667ZM132.417 39.5833C133.567 39.5833 134.5 38.6506 134.5 37.5C134.5 36.3494 133.567 35.4167 132.417 35.4167C131.266 35.4167 130.333 36.3494 130.333 37.5C130.333 38.6506 131.266 39.5833 132.417 39.5833Z"/>
</mask>
<path fill-rule="evenodd" clip-rule="evenodd" d="M132.417 41.6667C134.718 41.6667 136.583 39.8012 136.583 37.5C136.583 35.1988 134.718 33.3333 132.417 33.3333C130.115 33.3333 128.25 35.1988 128.25 37.5C128.25 39.8012 130.115 41.6667 132.417 41.6667ZM132.417 39.5833C133.567 39.5833 134.5 38.6506 134.5 37.5C134.5 36.3494 133.567 35.4167 132.417 35.4167C131.266 35.4167 130.333 36.3494 130.333 37.5C130.333 38.6506 131.266 39.5833 132.417 39.5833Z" fill="#989898"/>
<path d="M134.5 37.5C134.5 38.6506 133.567 39.5833 132.417 39.5833V43.75C135.868 43.75 138.667 40.9518 138.667 37.5H134.5ZM132.417 35.4167C133.567 35.4167 134.5 36.3494 134.5 37.5H138.667C138.667 34.0482 135.868 31.25 132.417 31.25V35.4167ZM130.333 37.5C130.333 36.3494 131.266 35.4167 132.417 35.4167V31.25C128.965 31.25 126.167 34.0482 126.167 37.5H130.333ZM132.417 39.5833C131.266 39.5833 130.333 38.6506 130.333 37.5H126.167C126.167 40.9518 128.965 43.75 132.417 43.75V39.5833ZM132.417 37.5V37.5V41.6667C134.718 41.6667 136.583 39.8012 136.583 37.5H132.417ZM132.417 37.5H136.583C136.583 35.1988 134.718 33.3333 132.417 33.3333V37.5ZM132.417 37.5V33.3333C130.115 33.3333 128.25 35.1988 128.25 37.5H132.417ZM132.417 37.5V37.5H128.25C128.25 39.8012 130.115 41.6667 132.417 41.6667V37.5Z" fill="#D9D9D9" mask="url(#path-6-inside-2_125_4329)"/>
<mask id="path-8-inside-3_125_4329" fill="white">
<path fill-rule="evenodd" clip-rule="evenodd" d="M151.167 83.3333C153.468 83.3333 155.333 81.4679 155.333 79.1667C155.333 76.8655 153.468 75 151.167 75C148.865 75 147 76.8655 147 79.1667C147 81.4679 148.865 83.3333 151.167 83.3333ZM151.167 81.25C152.317 81.25 153.25 80.3173 153.25 79.1667C153.25 78.0161 152.317 77.0833 151.167 77.0833C150.016 77.0833 149.083 78.0161 149.083 79.1667C149.083 80.3173 150.016 81.25 151.167 81.25Z"/>
</mask>
<path fill-rule="evenodd" clip-rule="evenodd" d="M151.167 83.3333C153.468 83.3333 155.333 81.4679 155.333 79.1667C155.333 76.8655 153.468 75 151.167 75C148.865 75 147 76.8655 147 79.1667C147 81.4679 148.865 83.3333 151.167 83.3333ZM151.167 81.25C152.317 81.25 153.25 80.3173 153.25 79.1667C153.25 78.0161 152.317 77.0833 151.167 77.0833C150.016 77.0833 149.083 78.0161 149.083 79.1667C149.083 80.3173 150.016 81.25 151.167 81.25Z" fill="#989898"/>
<path d="M153.25 79.1667C153.25 80.3173 152.317 81.25 151.167 81.25V85.4167C154.618 85.4167 157.417 82.6184 157.417 79.1667H153.25ZM151.167 77.0833C152.317 77.0833 153.25 78.0161 153.25 79.1667H157.417C157.417 75.7149 154.618 72.9167 151.167 72.9167V77.0833ZM149.083 79.1667C149.083 78.0161 150.016 77.0833 151.167 77.0833V72.9167C147.715 72.9167 144.917 75.7149 144.917 79.1667H149.083ZM151.167 81.25C150.016 81.25 149.083 80.3173 149.083 79.1667H144.917C144.917 82.6184 147.715 85.4167 151.167 85.4167V81.25ZM151.167 79.1667L151.167 79.1667V83.3333C153.468 83.3333 155.333 81.4679 155.333 79.1667H151.167ZM151.167 79.1667H151.167H155.333C155.333 76.8655 153.468 75 151.167 75V79.1667ZM151.167 79.1667V75C148.865 75 147 76.8655 147 79.1667H151.167ZM151.167 79.1667V79.1667H147C147 81.4678 148.865 83.3333 151.167 83.3333V79.1667Z" fill="#D9D9D9" mask="url(#path-8-inside-3_125_4329)"/>
<mask id="path-10-inside-4_125_4329" fill="white">
<path fill-rule="evenodd" clip-rule="evenodd" d="M163.667 54.1667C165.968 54.1667 167.833 52.3012 167.833 50C167.833 47.6988 165.968 45.8333 163.667 45.8333C161.365 45.8333 159.5 47.6988 159.5 50C159.5 52.3012 161.365 54.1667 163.667 54.1667ZM163.667 52.0833C164.817 52.0833 165.75 51.1506 165.75 50C165.75 48.8494 164.817 47.9167 163.667 47.9167C162.516 47.9167 161.583 48.8494 161.583 50C161.583 51.1506 162.516 52.0833 163.667 52.0833Z"/>
</mask>
<path fill-rule="evenodd" clip-rule="evenodd" d="M163.667 54.1667C165.968 54.1667 167.833 52.3012 167.833 50C167.833 47.6988 165.968 45.8333 163.667 45.8333C161.365 45.8333 159.5 47.6988 159.5 50C159.5 52.3012 161.365 54.1667 163.667 54.1667ZM163.667 52.0833C164.817 52.0833 165.75 51.1506 165.75 50C165.75 48.8494 164.817 47.9167 163.667 47.9167C162.516 47.9167 161.583 48.8494 161.583 50C161.583 51.1506 162.516 52.0833 163.667 52.0833Z" fill="#989898"/>
<path d="M165.75 50C165.75 51.1506 164.817 52.0833 163.667 52.0833V56.25C167.118 56.25 169.917 53.4518 169.917 50H165.75ZM163.667 47.9167C164.817 47.9167 165.75 48.8494 165.75 50H169.917C169.917 46.5482 167.118 43.75 163.667 43.75V47.9167ZM161.583 50C161.583 48.8494 162.516 47.9167 163.667 47.9167V43.75C160.215 43.75 157.417 46.5482 157.417 50H161.583ZM163.667 52.0833C162.516 52.0833 161.583 51.1506 161.583 50H157.417C157.417 53.4518 160.215 56.25 163.667 56.25V52.0833ZM163.667 50V54.1667C165.968 54.1667 167.833 52.3012 167.833 50H163.667ZM163.667 50H167.833C167.833 47.6988 165.968 45.8333 163.667 45.8333V50ZM163.667 50V45.8333C161.365 45.8333 159.5 47.6988 159.5 50H163.667ZM163.667 50H159.5C159.5 52.3012 161.365 54.1667 163.667 54.1667V50Z" fill="#D9D9D9" mask="url(#path-10-inside-4_125_4329)"/>
<mask id="path-12-inside-5_125_4329" fill="white">
<path fill-rule="evenodd" clip-rule="evenodd" d="M80.3332 54.1667C82.6344 54.1667 84.4998 52.3012 84.4998 50C84.4998 47.6988 82.6344 45.8333 80.3332 45.8333C78.032 45.8333 76.1665 47.6988 76.1665 50C76.1665 52.3012 78.032 54.1667 80.3332 54.1667ZM80.3333 52.0833C81.4839 52.0833 82.4167 51.1506 82.4167 50C82.4167 48.8494 81.4839 47.9167 80.3333 47.9167C79.1827 47.9167 78.25 48.8494 78.25 50C78.25 51.1506 79.1827 52.0833 80.3333 52.0833Z"/>
</mask>
<path fill-rule="evenodd" clip-rule="evenodd" d="M80.3332 54.1667C82.6344 54.1667 84.4998 52.3012 84.4998 50C84.4998 47.6988 82.6344 45.8333 80.3332 45.8333C78.032 45.8333 76.1665 47.6988 76.1665 50C76.1665 52.3012 78.032 54.1667 80.3332 54.1667ZM80.3333 52.0833C81.4839 52.0833 82.4167 51.1506 82.4167 50C82.4167 48.8494 81.4839 47.9167 80.3333 47.9167C79.1827 47.9167 78.25 48.8494 78.25 50C78.25 51.1506 79.1827 52.0833 80.3333 52.0833Z" fill="#989898"/>
<path d="M82.4165 50C82.4165 51.1506 81.4838 52.0833 80.3332 52.0833V56.25C83.785 56.25 86.5832 53.4518 86.5832 50H82.4165ZM80.3332 47.9167C81.4838 47.9167 82.4165 48.8494 82.4165 50H86.5832C86.5832 46.5482 83.785 43.75 80.3332 43.75V47.9167ZM78.2498 50C78.2498 48.8494 79.1826 47.9167 80.3332 47.9167V43.75C76.8814 43.75 74.0832 46.5482 74.0832 50H78.2498ZM80.3332 52.0833C79.1826 52.0833 78.2498 51.1506 78.2498 50H74.0832C74.0832 53.4518 76.8814 56.25 80.3332 56.25V52.0833ZM80.3333 50V54.1667C82.6345 54.1667 84.5 52.3012 84.5 50H80.3333ZM80.3333 50H84.5C84.5 47.6988 82.6345 45.8333 80.3333 45.8333V50ZM80.3333 50V45.8333C78.0321 45.8333 76.1667 47.6988 76.1667 50H80.3333ZM80.3333 50H76.1667C76.1667 52.3012 78.0321 54.1667 80.3333 54.1667V50Z" fill="#D9D9D9" mask="url(#path-12-inside-5_125_4329)"/>
<mask id="path-14-inside-6_125_4329" fill="white">
<path fill-rule="evenodd" clip-rule="evenodd" d="M119.917 64.5833C122.218 64.5833 124.083 62.7179 124.083 60.4167C124.083 58.1155 122.218 56.25 119.917 56.25C117.615 56.25 115.75 58.1155 115.75 60.4167C115.75 62.7179 117.615 64.5833 119.917 64.5833ZM119.917 62.5C121.067 62.5 122 61.5673 122 60.4167C122 59.2661 121.067 58.3333 119.917 58.3333C118.766 58.3333 117.833 59.2661 117.833 60.4167C117.833 61.5673 118.766 62.5 119.917 62.5Z"/>
</mask>
<path fill-rule="evenodd" clip-rule="evenodd" d="M119.917 64.5833C122.218 64.5833 124.083 62.7179 124.083 60.4167C124.083 58.1155 122.218 56.25 119.917 56.25C117.615 56.25 115.75 58.1155 115.75 60.4167C115.75 62.7179 117.615 64.5833 119.917 64.5833ZM119.917 62.5C121.067 62.5 122 61.5673 122 60.4167C122 59.2661 121.067 58.3333 119.917 58.3333C118.766 58.3333 117.833 59.2661 117.833 60.4167C117.833 61.5673 118.766 62.5 119.917 62.5Z" fill="#989898"/>
<path d="M122 60.4167C122 61.5673 121.067 62.5 119.917 62.5V66.6667C123.368 66.6667 126.167 63.8684 126.167 60.4167H122ZM119.917 58.3333C121.067 58.3333 122 59.2661 122 60.4167H126.167C126.167 56.9649 123.368 54.1667 119.917 54.1667V58.3333ZM117.833 60.4167C117.833 59.2661 118.766 58.3333 119.917 58.3333V54.1667C116.465 54.1667 113.667 56.9649 113.667 60.4167H117.833ZM119.917 62.5C118.766 62.5 117.833 61.5673 117.833 60.4167H113.667C113.667 63.8684 116.465 66.6667 119.917 66.6667V62.5ZM119.917 60.4167V64.5833C122.218 64.5833 124.083 62.7179 124.083 60.4167H119.917ZM119.917 60.4167H124.083C124.083 58.1155 122.218 56.25 119.917 56.25V60.4167ZM119.917 60.4167V56.25C117.615 56.25 115.75 58.1155 115.75 60.4167H119.917ZM119.917 60.4167H115.75C115.75 62.7179 117.615 64.5833 119.917 64.5833V60.4167Z" fill="#D9D9D9" mask="url(#path-14-inside-6_125_4329)"/>
<mask id="path-16-inside-7_125_4329" fill="white">
<path fill-rule="evenodd" clip-rule="evenodd" d="M92.8332 25C95.1344 25 96.9998 23.1345 96.9998 20.8333C96.9998 18.5321 95.1344 16.6667 92.8332 16.6667C90.532 16.6667 88.6665 18.5321 88.6665 20.8333C88.6665 23.1345 90.532 25 92.8332 25ZM92.8333 22.9167C93.9839 22.9167 94.9167 21.9839 94.9167 20.8333C94.9167 19.6827 93.9839 18.75 92.8333 18.75C91.6827 18.75 90.75 19.6827 90.75 20.8333C90.75 21.9839 91.6827 22.9167 92.8333 22.9167Z"/>
</mask>
<path fill-rule="evenodd" clip-rule="evenodd" d="M92.8332 25C95.1344 25 96.9998 23.1345 96.9998 20.8333C96.9998 18.5321 95.1344 16.6667 92.8332 16.6667C90.532 16.6667 88.6665 18.5321 88.6665 20.8333C88.6665 23.1345 90.532 25 92.8332 25ZM92.8333 22.9167C93.9839 22.9167 94.9167 21.9839 94.9167 20.8333C94.9167 19.6827 93.9839 18.75 92.8333 18.75C91.6827 18.75 90.75 19.6827 90.75 20.8333C90.75 21.9839 91.6827 22.9167 92.8333 22.9167Z" fill="#989898"/>
<path d="M94.9165 20.8333C94.9165 21.9839 93.9838 22.9167 92.8332 22.9167V27.0833C96.285 27.0833 99.0832 24.2851 99.0832 20.8333H94.9165ZM92.8332 18.75C93.9838 18.75 94.9165 19.6827 94.9165 20.8333H99.0832C99.0832 17.3815 96.285 14.5833 92.8332 14.5833V18.75ZM90.7498 20.8333C90.7498 19.6827 91.6826 18.75 92.8332 18.75V14.5833C89.3814 14.5833 86.5832 17.3815 86.5832 20.8333H90.7498ZM92.8332 22.9167C91.6826 22.9167 90.7498 21.9839 90.7498 20.8333H86.5832C86.5832 24.2851 89.3814 27.0833 92.8332 27.0833V22.9167ZM92.8333 20.8333L92.8333 20.8333V25C95.1345 25 97 23.1345 97 20.8333H92.8333ZM92.8333 20.8333H92.8333H97C97 18.5321 95.1345 16.6667 92.8333 16.6667V20.8333ZM92.8333 20.8333V16.6667C90.5321 16.6667 88.6667 18.5321 88.6667 20.8333H92.8333ZM92.8333 20.8333V20.8333H88.6667C88.6667 23.1345 90.5321 25 92.8333 25V20.8333Z" fill="#D9D9D9" mask="url(#path-16-inside-7_125_4329)"/>
<mask id="path-18-inside-8_125_4329" fill="white">
<path fill-rule="evenodd" clip-rule="evenodd" d="M151.167 25C153.468 25 155.333 23.1345 155.333 20.8333C155.333 18.5321 153.468 16.6667 151.167 16.6667C148.865 16.6667 147 18.5321 147 20.8333C147 23.1345 148.865 25 151.167 25ZM151.167 22.9167C152.317 22.9167 153.25 21.9839 153.25 20.8333C153.25 19.6827 152.317 18.75 151.167 18.75C150.016 18.75 149.083 19.6827 149.083 20.8333C149.083 21.9839 150.016 22.9167 151.167 22.9167Z"/>
</mask>
<path fill-rule="evenodd" clip-rule="evenodd" d="M151.167 25C153.468 25 155.333 23.1345 155.333 20.8333C155.333 18.5321 153.468 16.6667 151.167 16.6667C148.865 16.6667 147 18.5321 147 20.8333C147 23.1345 148.865 25 151.167 25ZM151.167 22.9167C152.317 22.9167 153.25 21.9839 153.25 20.8333C153.25 19.6827 152.317 18.75 151.167 18.75C150.016 18.75 149.083 19.6827 149.083 20.8333C149.083 21.9839 150.016 22.9167 151.167 22.9167Z" fill="#989898"/>
<path d="M153.25 20.8333C153.25 21.9839 152.317 22.9167 151.167 22.9167V27.0833C154.618 27.0833 157.417 24.2851 157.417 20.8333H153.25ZM151.167 18.75C152.317 18.75 153.25 19.6827 153.25 20.8333H157.417C157.417 17.3815 154.618 14.5833 151.167 14.5833V18.75ZM149.083 20.8333C149.083 19.6827 150.016 18.75 151.167 18.75V14.5833C147.715 14.5833 144.917 17.3815 144.917 20.8333H149.083ZM151.167 22.9167C150.016 22.9167 149.083 21.9839 149.083 20.8333H144.917C144.917 24.2851 147.715 27.0833 151.167 27.0833V22.9167ZM151.167 20.8333L151.167 20.8333V25C153.468 25 155.333 23.1345 155.333 20.8333H151.167ZM151.167 20.8333H151.167H155.333C155.333 18.5321 153.468 16.6667 151.167 16.6667V20.8333ZM151.167 20.8333V16.6667C148.865 16.6667 147 18.5321 147 20.8333H151.167ZM151.167 20.8333V20.8333H147C147 23.1345 148.865 25 151.167 25V20.8333Z" fill="#D9D9D9" mask="url(#path-18-inside-8_125_4329)"/>
<path d="M90.75 91.6667V12.5H109.5V75H147V91.6667H90.75Z" fill="white"/>
<path d="M97 8.33334L90.75 12.5H109.5L115.75 8.33334H97Z" fill="#D9D9D9"/>
<path d="M115.75 8.33334L109.5 12.5V75L115.75 70.8333V8.33334Z" fill="#989898"/>
<path d="M115.75 70.8333L109.5 75H147L153.25 70.8333H115.75Z" fill="#D9D9D9"/>
<path d="M153.25 70.8333L147 75V91.6667L153.25 87.5V70.8333Z" fill="#989898"/>
</svg>
